<?xml version="1.0" encoding="UTF-8" standalone="no"?>
<!DOCTYPE svg PUBLIC "-//W3C//DTD SVG 1.1//EN"
 "http://www.w3.org/Graphics/SVG/1.1/DTD/svg11.dtd">
<!-- Generated by graphviz version 2.38.0 (20140413.2041)
 -->
<!-- Title: controllers_diagram Pages: 1 -->
<svg width="838pt" height="735pt"
 viewBox="0.00 0.00 837.92 735.00" xmlns="http://www.w3.org/2000/svg" xmlns:xlink="http://www.w3.org/1999/xlink">
<g id="graph0" class="graph" transform="scale(1 1) rotate(0) translate(339.757 395.5)">
<title>controllers_diagram</title>
<polygon fill="none" stroke="none" points="-339.757,339.5 -339.757,-395.5 498.162,-395.5 498.162,339.5 -339.757,339.5"/>
<!-- _diagram_info -->
<g id="node1" class="node"><title>_diagram_info</title>
<text text-anchor="start" x="-199.688" y="148.9" font-family="Times,serif" font-size="13.00">Controllers diagram</text>
<text text-anchor="start" x="-199.688" y="161.9" font-family="Times,serif" font-size="13.00">Date: May 27 2016 &#45; 23:00</text>
<text text-anchor="start" x="-199.688" y="174.9" font-family="Times,serif" font-size="13.00">Migration version: 20160527073541</text>
<text text-anchor="start" x="-199.688" y="187.9" font-family="Times,serif" font-size="13.00">Generated by RailRoady 1.4.2</text>
<text text-anchor="start" x="-199.688" y="200.9" font-family="Times,serif" font-size="13.00">http://railroady.prestonlee.com</text>
</g>
<!-- Account::GroupsController -->
<g id="node2" class="node"><title>Account::GroupsController</title>
<path fill="none" stroke="black" d="M-99.9863,-289C-99.9863,-289 45.9863,-289 45.9863,-289 51.9863,-289 57.9863,-295 57.9863,-301 57.9863,-301 57.9863,-367 57.9863,-367 57.9863,-373 51.9863,-379 45.9863,-379 45.9863,-379 -99.9863,-379 -99.9863,-379 -105.986,-379 -111.986,-373 -111.986,-367 -111.986,-367 -111.986,-301 -111.986,-301 -111.986,-295 -105.986,-289 -99.9863,-289"/>
<text text-anchor="middle" x="-27" y="-363.8" font-family="Times,serif" font-size="14.00">Account::GroupsController</text>
<polyline fill="none" stroke="black" points="-111.986,-357 57.9863,-357 "/>
<text text-anchor="start" x="-103.986" y="-341.8" font-family="Times,serif" font-size="14.00">index</text>
<polyline fill="none" stroke="black" points="-111.986,-335 57.9863,-335 "/>
<polyline fill="none" stroke="black" points="-111.986,-311 57.9863,-311 "/>
<text text-anchor="start" x="-103.986" y="-295.8" font-family="Times,serif" font-size="14.00">_layout</text>
</g>
<!-- Account::OrdersController -->
<g id="node3" class="node"><title>Account::OrdersController</title>
<path fill="none" stroke="black" d="M43.5757,239C43.5757,239 186.424,239 186.424,239 192.424,239 198.424,233 198.424,227 198.424,227 198.424,161 198.424,161 198.424,155 192.424,149 186.424,149 186.424,149 43.5757,149 43.5757,149 37.5757,149 31.5757,155 31.5757,161 31.5757,161 31.5757,227 31.5757,227 31.5757,233 37.5757,239 43.5757,239"/>
<text text-anchor="middle" x="115" y="164.2" font-family="Times,serif" font-size="14.00">Account::OrdersController</text>
<polyline fill="none" stroke="black" points="31.5757,171 198.424,171 "/>
<text text-anchor="start" x="39.5757" y="186.2" font-family="Times,serif" font-size="14.00">index</text>
<polyline fill="none" stroke="black" points="31.5757,193 198.424,193 "/>
<polyline fill="none" stroke="black" points="31.5757,217 198.424,217 "/>
<text text-anchor="start" x="39.5757" y="232.2" font-family="Times,serif" font-size="14.00">_layout</text>
</g>
<!-- Account::PostsController -->
<g id="node4" class="node"><title>Account::PostsController</title>
<path fill="none" stroke="black" d="M347.838,111C347.838,111 482.162,111 482.162,111 488.162,111 494.162,105 494.162,99 494.162,99 494.162,33 494.162,33 494.162,27 488.162,21 482.162,21 482.162,21 347.838,21 347.838,21 341.838,21 335.838,27 335.838,33 335.838,33 335.838,99 335.838,99 335.838,105 341.838,111 347.838,111"/>
<text text-anchor="middle" x="415" y="36.2" font-family="Times,serif" font-size="14.00">Account::PostsController</text>
<polyline fill="none" stroke="black" points="335.838,43 494.162,43 "/>
<text text-anchor="start" x="343.838" y="58.2" font-family="Times,serif" font-size="14.00">index</text>
<polyline fill="none" stroke="black" points="335.838,65 494.162,65 "/>
<polyline fill="none" stroke="black" points="335.838,89 494.162,89 "/>
<text text-anchor="start" x="343.838" y="104.2" font-family="Times,serif" font-size="14.00">_layout</text>
</g>
<!-- Admin::OrdersController -->
<g id="node5" class="node"><title>Admin::OrdersController</title>
<path fill="none" stroke="black" d="M-84.1553,-97C-84.1553,-97 50.1553,-97 50.1553,-97 56.1553,-97 62.1553,-103 62.1553,-109 62.1553,-109 62.1553,-245 62.1553,-245 62.1553,-251 56.1553,-257 50.1553,-257 50.1553,-257 -84.1553,-257 -84.1553,-257 -90.1553,-257 -96.1553,-251 -96.1553,-245 -96.1553,-245 -96.1553,-109 -96.1553,-109 -96.1553,-103 -90.1553,-97 -84.1553,-97"/>
<text text-anchor="middle" x="-17" y="-241.8" font-family="Times,serif" font-size="14.00">Admin::OrdersController</text>
<polyline fill="none" stroke="black" points="-96.1553,-235 62.1553,-235 "/>
<text text-anchor="start" x="-88.1553" y="-219.8" font-family="Times,serif" font-size="14.00">cancel</text>
<text text-anchor="start" x="-88.1553" y="-205.8" font-family="Times,serif" font-size="14.00">index</text>
<text text-anchor="start" x="-88.1553" y="-191.8" font-family="Times,serif" font-size="14.00">return</text>
<text text-anchor="start" x="-88.1553" y="-177.8" font-family="Times,serif" font-size="14.00">ship</text>
<text text-anchor="start" x="-88.1553" y="-163.8" font-family="Times,serif" font-size="14.00">shipped</text>
<text text-anchor="start" x="-88.1553" y="-149.8" font-family="Times,serif" font-size="14.00">show</text>
<polyline fill="none" stroke="black" points="-96.1553,-143 62.1553,-143 "/>
<polyline fill="none" stroke="black" points="-96.1553,-119 62.1553,-119 "/>
<text text-anchor="start" x="-88.1553" y="-103.8" font-family="Times,serif" font-size="14.00">_layout</text>
</g>
<!-- Admin::ProductsController -->
<g id="node6" class="node"><title>Admin::ProductsController</title>
<path fill="none" stroke="black" d="M-83.6069,95C-83.6069,95 61.6069,95 61.6069,95 67.6069,95 73.6069,89 73.6069,83 73.6069,83 73.6069,-53 73.6069,-53 73.6069,-59 67.6069,-65 61.6069,-65 61.6069,-65 -83.6069,-65 -83.6069,-65 -89.6069,-65 -95.6069,-59 -95.6069,-53 -95.6069,-53 -95.6069,83 -95.6069,83 -95.6069,89 -89.6069,95 -83.6069,95"/>
<text text-anchor="middle" x="-11" y="-49.8" font-family="Times,serif" font-size="14.00">Admin::ProductsController</text>
<polyline fill="none" stroke="black" points="-95.6069,-43 73.6069,-43 "/>
<text text-anchor="start" x="-87.6069" y="-27.8" font-family="Times,serif" font-size="14.00">create</text>
<text text-anchor="start" x="-87.6069" y="-13.8" font-family="Times,serif" font-size="14.00">edit</text>
<text text-anchor="start" x="-87.6069" y="0.2" font-family="Times,serif" font-size="14.00">index</text>
<text text-anchor="start" x="-87.6069" y="14.2" font-family="Times,serif" font-size="14.00">new</text>
<text text-anchor="start" x="-87.6069" y="28.2" font-family="Times,serif" font-size="14.00">update</text>
<polyline fill="none" stroke="black" points="-95.6069,35 73.6069,35 "/>
<polyline fill="none" stroke="black" points="-95.6069,59 73.6069,59 "/>
<text text-anchor="start" x="-87.6069" y="74.2" font-family="Times,serif" font-size="14.00">_layout</text>
<text text-anchor="start" x="-87.6069" y="88.2" font-family="Times,serif" font-size="14.00">product_params</text>
</g>
<!-- Admin::UsersController -->
<g id="node7" class="node"><title>Admin::UsersController</title>
<path fill="none" stroke="black" d="M251.952,-49C251.952,-49 380.048,-49 380.048,-49 386.048,-49 392.048,-55 392.048,-61 392.048,-61 392.048,-155 392.048,-155 392.048,-161 386.048,-167 380.048,-167 380.048,-167 251.952,-167 251.952,-167 245.952,-167 239.952,-161 239.952,-155 239.952,-155 239.952,-61 239.952,-61 239.952,-55 245.952,-49 251.952,-49"/>
<text text-anchor="middle" x="316" y="-151.8" font-family="Times,serif" font-size="14.00">Admin::UsersController</text>
<polyline fill="none" stroke="black" points="239.952,-145 392.048,-145 "/>
<text text-anchor="start" x="247.952" y="-129.8" font-family="Times,serif" font-size="14.00">index</text>
<text text-anchor="start" x="247.952" y="-115.8" font-family="Times,serif" font-size="14.00">to_admin</text>
<text text-anchor="start" x="247.952" y="-101.8" font-family="Times,serif" font-size="14.00">to_normal</text>
<polyline fill="none" stroke="black" points="239.952,-95 392.048,-95 "/>
<polyline fill="none" stroke="black" points="239.952,-71 392.048,-71 "/>
<text text-anchor="start" x="247.952" y="-55.8" font-family="Times,serif" font-size="14.00">_layout</text>
</g>
<!-- ApplicationController -->
<g id="node8" class="node"><title>ApplicationController</title>
<path fill="none" stroke="black" d="M124.034,111C124.034,111 297.966,111 297.966,111 303.966,111 309.966,105 309.966,99 309.966,99 309.966,-9 309.966,-9 309.966,-15 303.966,-21 297.966,-21 297.966,-21 124.034,-21 124.034,-21 118.034,-21 112.034,-15 112.034,-9 112.034,-9 112.034,99 112.034,99 112.034,105 118.034,111 124.034,111"/>
<text text-anchor="middle" x="211" y="-5.8" font-family="Times,serif" font-size="14.00">ApplicationController</text>
<polyline fill="none" stroke="black" points="112.034,1 309.966,1 "/>
<polyline fill="none" stroke="black" points="112.034,25 309.966,25 "/>
<text text-anchor="start" x="120.034" y="40.2" font-family="Times,serif" font-size="14.00">admin_required</text>
<text text-anchor="start" x="120.034" y="54.2" font-family="Times,serif" font-size="14.00">configure_permitted_parameters</text>
<text text-anchor="start" x="120.034" y="68.2" font-family="Times,serif" font-size="14.00">current_cart</text>
<polyline fill="none" stroke="black" points="112.034,75 309.966,75 "/>
<text text-anchor="start" x="120.034" y="90.2" font-family="Times,serif" font-size="14.00">_layout</text>
<text text-anchor="start" x="120.034" y="104.2" font-family="Times,serif" font-size="14.00">find_cart</text>
</g>
<!-- CartItemsController -->
<g id="node9" class="node"><title>CartItemsController</title>
<path fill="none" stroke="black" d="M235.624,255C235.624,255 340.376,255 340.376,255 346.376,255 352.376,249 352.376,243 352.376,243 352.376,149 352.376,149 352.376,143 346.376,137 340.376,137 340.376,137 235.624,137 235.624,137 229.624,137 223.624,143 223.624,149 223.624,149 223.624,243 223.624,243 223.624,249 229.624,255 235.624,255"/>
<text text-anchor="middle" x="288" y="152.2" font-family="Times,serif" font-size="14.00">CartItemsController</text>
<polyline fill="none" stroke="black" points="223.624,159 352.376,159 "/>
<text text-anchor="start" x="231.624" y="174.2" font-family="Times,serif" font-size="14.00">destroy</text>
<text text-anchor="start" x="231.624" y="188.2" font-family="Times,serif" font-size="14.00">update</text>
<polyline fill="none" stroke="black" points="223.624,195 352.376,195 "/>
<polyline fill="none" stroke="black" points="223.624,219 352.376,219 "/>
<text text-anchor="start" x="231.624" y="234.2" font-family="Times,serif" font-size="14.00">_layout</text>
<text text-anchor="start" x="231.624" y="248.2" font-family="Times,serif" font-size="14.00">item_params</text>
</g>
<!-- CartsController -->
<g id="node10" class="node"><title>CartsController</title>
<path fill="none" stroke="black" d="M-323.548,143C-323.548,143 -244.452,143 -244.452,143 -238.452,143 -232.452,137 -232.452,131 -232.452,131 -232.452,51 -232.452,51 -232.452,45 -238.452,39 -244.452,39 -244.452,39 -323.548,39 -323.548,39 -329.548,39 -335.548,45 -335.548,51 -335.548,51 -335.548,131 -335.548,131 -335.548,137 -329.548,143 -323.548,143"/>
<text text-anchor="middle" x="-284" y="54.2" font-family="Times,serif" font-size="14.00">CartsController</text>
<polyline fill="none" stroke="black" points="-335.548,61 -232.452,61 "/>
<text text-anchor="start" x="-327.548" y="76.2" font-family="Times,serif" font-size="14.00">checkout</text>
<text text-anchor="start" x="-327.548" y="90.2" font-family="Times,serif" font-size="14.00">clean</text>
<polyline fill="none" stroke="black" points="-335.548,97 -232.452,97 "/>
<polyline fill="none" stroke="black" points="-335.548,121 -232.452,121 "/>
<text text-anchor="start" x="-327.548" y="136.2" font-family="Times,serif" font-size="14.00">_layout</text>
</g>
<!-- GroupsController -->
<g id="node11" class="node"><title>GroupsController</title>
<path fill="none" stroke="black" d="M107.617,-97C107.617,-97 198.383,-97 198.383,-97 204.383,-97 210.383,-103 210.383,-109 210.383,-109 210.383,-301 210.383,-301 210.383,-307 204.383,-313 198.383,-313 198.383,-313 107.617,-313 107.617,-313 101.617,-313 95.6172,-307 95.6172,-301 95.6172,-301 95.6172,-109 95.6172,-109 95.6172,-103 101.617,-97 107.617,-97"/>
<text text-anchor="middle" x="153" y="-297.8" font-family="Times,serif" font-size="14.00">GroupsController</text>
<polyline fill="none" stroke="black" points="95.6172,-291 210.383,-291 "/>
<text text-anchor="start" x="103.617" y="-275.8" font-family="Times,serif" font-size="14.00">create</text>
<text text-anchor="start" x="103.617" y="-261.8" font-family="Times,serif" font-size="14.00">destroy</text>
<text text-anchor="start" x="103.617" y="-247.8" font-family="Times,serif" font-size="14.00">edit</text>
<text text-anchor="start" x="103.617" y="-233.8" font-family="Times,serif" font-size="14.00">index</text>
<text text-anchor="start" x="103.617" y="-219.8" font-family="Times,serif" font-size="14.00">join</text>
<text text-anchor="start" x="103.617" y="-205.8" font-family="Times,serif" font-size="14.00">new</text>
<text text-anchor="start" x="103.617" y="-191.8" font-family="Times,serif" font-size="14.00">quit</text>
<text text-anchor="start" x="103.617" y="-177.8" font-family="Times,serif" font-size="14.00">show</text>
<text text-anchor="start" x="103.617" y="-163.8" font-family="Times,serif" font-size="14.00">update</text>
<polyline fill="none" stroke="black" points="95.6172,-157 210.383,-157 "/>
<polyline fill="none" stroke="black" points="95.6172,-133 210.383,-133 "/>
<text text-anchor="start" x="103.617" y="-117.8" font-family="Times,serif" font-size="14.00">_layout</text>
<text text-anchor="start" x="103.617" y="-103.8" font-family="Times,serif" font-size="14.00">group_params</text>
</g>
<!-- OrdersController -->
<g id="node12" class="node"><title>OrdersController</title>
<path fill="none" stroke="black" d="M251.969,-193C251.969,-193 366.031,-193 366.031,-193 372.031,-193 378.031,-199 378.031,-205 378.031,-205 378.031,-313 378.031,-313 378.031,-319 372.031,-325 366.031,-325 366.031,-325 251.969,-325 251.969,-325 245.969,-325 239.969,-319 239.969,-313 239.969,-313 239.969,-205 239.969,-205 239.969,-199 245.969,-193 251.969,-193"/>
<text text-anchor="middle" x="309" y="-309.8" font-family="Times,serif" font-size="14.00">OrdersController</text>
<polyline fill="none" stroke="black" points="239.969,-303 378.031,-303 "/>
<text text-anchor="start" x="247.969" y="-287.8" font-family="Times,serif" font-size="14.00">create</text>
<text text-anchor="start" x="247.969" y="-273.8" font-family="Times,serif" font-size="14.00">pay_with_credit_card</text>
<text text-anchor="start" x="247.969" y="-259.8" font-family="Times,serif" font-size="14.00">show</text>
<polyline fill="none" stroke="black" points="239.969,-253 378.031,-253 "/>
<polyline fill="none" stroke="black" points="239.969,-229 378.031,-229 "/>
<text text-anchor="start" x="247.969" y="-213.8" font-family="Times,serif" font-size="14.00">_layout</text>
<text text-anchor="start" x="247.969" y="-199.8" font-family="Times,serif" font-size="14.00">order_params</text>
</g>
<!-- PostsController -->
<g id="node13" class="node"><title>PostsController</title>
<path fill="none" stroke="black" d="M-227.755,-1C-227.755,-1 -136.245,-1 -136.245,-1 -130.245,-1 -124.245,-7 -124.245,-13 -124.245,-13 -124.245,-177 -124.245,-177 -124.245,-183 -130.245,-189 -136.245,-189 -136.245,-189 -227.755,-189 -227.755,-189 -233.755,-189 -239.755,-183 -239.755,-177 -239.755,-177 -239.755,-13 -239.755,-13 -239.755,-7 -233.755,-1 -227.755,-1"/>
<text text-anchor="middle" x="-182" y="-173.8" font-family="Times,serif" font-size="14.00">PostsController</text>
<polyline fill="none" stroke="black" points="-239.755,-167 -124.245,-167 "/>
<text text-anchor="start" x="-231.755" y="-151.8" font-family="Times,serif" font-size="14.00">create</text>
<text text-anchor="start" x="-231.755" y="-137.8" font-family="Times,serif" font-size="14.00">destroy</text>
<text text-anchor="start" x="-231.755" y="-123.8" font-family="Times,serif" font-size="14.00">edit</text>
<text text-anchor="start" x="-231.755" y="-109.8" font-family="Times,serif" font-size="14.00">new</text>
<text text-anchor="start" x="-231.755" y="-95.8" font-family="Times,serif" font-size="14.00">update</text>
<polyline fill="none" stroke="black" points="-239.755,-89 -124.245,-89 "/>
<polyline fill="none" stroke="black" points="-239.755,-65 -124.245,-65 "/>
<text text-anchor="start" x="-231.755" y="-49.8" font-family="Times,serif" font-size="14.00">_layout</text>
<text text-anchor="start" x="-231.755" y="-35.8" font-family="Times,serif" font-size="14.00">find_group</text>
<text text-anchor="start" x="-231.755" y="-21.8" font-family="Times,serif" font-size="14.00">member_required</text>
<text text-anchor="start" x="-231.755" y="-7.8" font-family="Times,serif" font-size="14.00">post_params</text>
</g>
<!-- ProductsController -->
<g id="node14" class="node"><title>ProductsController</title>
<path fill="none" stroke="black" d="M-260.272,-273C-260.272,-273 -161.728,-273 -161.728,-273 -155.728,-273 -149.728,-279 -149.728,-285 -149.728,-285 -149.728,-379 -149.728,-379 -149.728,-385 -155.728,-391 -161.728,-391 -161.728,-391 -260.272,-391 -260.272,-391 -266.272,-391 -272.272,-385 -272.272,-379 -272.272,-379 -272.272,-285 -272.272,-285 -272.272,-279 -266.272,-273 -260.272,-273"/>
<text text-anchor="middle" x="-211" y="-375.8" font-family="Times,serif" font-size="14.00">ProductsController</text>
<polyline fill="none" stroke="black" points="-272.272,-369 -149.728,-369 "/>
<text text-anchor="start" x="-264.272" y="-353.8" font-family="Times,serif" font-size="14.00">add_to_cart</text>
<text text-anchor="start" x="-264.272" y="-339.8" font-family="Times,serif" font-size="14.00">index</text>
<text text-anchor="start" x="-264.272" y="-325.8" font-family="Times,serif" font-size="14.00">show</text>
<polyline fill="none" stroke="black" points="-272.272,-319 -149.728,-319 "/>
<polyline fill="none" stroke="black" points="-272.272,-295 -149.728,-295 "/>
<text text-anchor="start" x="-264.272" y="-279.8" font-family="Times,serif" font-size="14.00">_layout</text>
</g>
<!-- WelcomesController -->
<g id="node15" class="node"><title>WelcomesController</title>
<path fill="none" stroke="black" d="M-323.757,335C-323.757,335 -216.243,335 -216.243,335 -210.243,335 -204.243,329 -204.243,323 -204.243,323 -204.243,255 -204.243,255 -204.243,249 -210.243,243 -216.243,243 -216.243,243 -323.757,243 -323.757,243 -329.757,243 -335.757,249 -335.757,255 -335.757,255 -335.757,323 -335.757,323 -335.757,329 -329.757,335 -323.757,335"/>
<text text-anchor="middle" x="-270" y="258.2" font-family="Times,serif" font-size="14.00">WelcomesController</text>
<polyline fill="none" stroke="black" points="-335.757,265 -204.243,265 "/>
<polyline fill="none" stroke="black" points="-335.757,289 -204.243,289 "/>
<polyline fill="none" stroke="black" points="-335.757,313 -204.243,313 "/>
<text text-anchor="start" x="-327.757" y="328.2" font-family="Times,serif" font-size="14.00">_layout</text>
</g>
</g>
</svg>
