<?xml version="1.0" encoding="UTF-8" standalone="no"?>
<!DOCTYPE svg PUBLIC "-//W3C//DTD SVG 1.1//EN"
 "http://www.w3.org/Graphics/SVG/1.1/DTD/svg11.dtd">
<!-- Generated by graphviz version 2.38.0 (20140413.2041)
 -->
<!-- Title: controllers_diagram Pages: 1 -->
<svg width="822pt" height="737pt"
 viewBox="0.00 0.00 821.92 737.00" xmlns="http://www.w3.org/2000/svg" xmlns:xlink="http://www.w3.org/1999/xlink">
<g id="graph0" class="graph" transform="scale(1 1) rotate(0) translate(339.757 397.5)">
<title>controllers_diagram</title>
<polygon fill="none" stroke="none" points="-339.757,339.5 -339.757,-397.5 482.162,-397.5 482.162,339.5 -339.757,339.5"/>
<!-- _diagram_info -->
<g id="node1" class="node"><title>_diagram_info</title>
<text text-anchor="start" x="-199.688" y="148.9" font-family="Times,serif" font-size="13.00">Controllers diagram</text>
<text text-anchor="start" x="-199.688" y="161.9" font-family="Times,serif" font-size="13.00">Date: May 27 2016 &#45; 10:10</text>
<text text-anchor="start" x="-199.688" y="174.9" font-family="Times,serif" font-size="13.00">Migration version: 20160527012726</text>
<text text-anchor="start" x="-199.688" y="187.9" font-family="Times,serif" font-size="13.00">Generated by RailRoady 1.4.2</text>
<text text-anchor="start" x="-199.688" y="200.9" font-family="Times,serif" font-size="13.00">http://railroady.prestonlee.com</text>
</g>
<!-- Account::GroupsController -->
<g id="node2" class="node"><title>Account::GroupsController</title>
<path fill="none" stroke="black" d="M60.0137,-289C60.0137,-289 205.986,-289 205.986,-289 211.986,-289 217.986,-295 217.986,-301 217.986,-301 217.986,-369 217.986,-369 217.986,-375 211.986,-381 205.986,-381 205.986,-381 60.0137,-381 60.0137,-381 54.0137,-381 48.0137,-375 48.0137,-369 48.0137,-369 48.0137,-301 48.0137,-301 48.0137,-295 54.0137,-289 60.0137,-289"/>
<text text-anchor="middle" x="133" y="-365.8" font-family="Times,serif" font-size="14.00">Account::GroupsController</text>
<polyline fill="none" stroke="black" points="48.0137,-359 217.986,-359 "/>
<polyline fill="none" stroke="black" points="48.0137,-335 217.986,-335 "/>
<polyline fill="none" stroke="black" points="48.0137,-311 217.986,-311 "/>
<text text-anchor="start" x="56.0137" y="-295.8" font-family="Times,serif" font-size="14.00">_layout</text>
</g>
<!-- Account::OrdersController -->
<g id="node3" class="node"><title>Account::OrdersController</title>
<path fill="none" stroke="black" d="M43.5757,255C43.5757,255 186.424,255 186.424,255 192.424,255 198.424,249 198.424,243 198.424,243 198.424,177 198.424,177 198.424,171 192.424,165 186.424,165 186.424,165 43.5757,165 43.5757,165 37.5757,165 31.5757,171 31.5757,177 31.5757,177 31.5757,243 31.5757,243 31.5757,249 37.5757,255 43.5757,255"/>
<text text-anchor="middle" x="115" y="180.2" font-family="Times,serif" font-size="14.00">Account::OrdersController</text>
<polyline fill="none" stroke="black" points="31.5757,187 198.424,187 "/>
<text text-anchor="start" x="39.5757" y="202.2" font-family="Times,serif" font-size="14.00">index</text>
<polyline fill="none" stroke="black" points="31.5757,209 198.424,209 "/>
<polyline fill="none" stroke="black" points="31.5757,233 198.424,233 "/>
<text text-anchor="start" x="39.5757" y="248.2" font-family="Times,serif" font-size="14.00">_layout</text>
</g>
<!-- Account::PostsController -->
<g id="node4" class="node"><title>Account::PostsController</title>
<path fill="none" stroke="black" d="M331.838,-49C331.838,-49 466.162,-49 466.162,-49 472.162,-49 478.162,-55 478.162,-61 478.162,-61 478.162,-129 478.162,-129 478.162,-135 472.162,-141 466.162,-141 466.162,-141 331.838,-141 331.838,-141 325.838,-141 319.838,-135 319.838,-129 319.838,-129 319.838,-61 319.838,-61 319.838,-55 325.838,-49 331.838,-49"/>
<text text-anchor="middle" x="399" y="-125.8" font-family="Times,serif" font-size="14.00">Account::PostsController</text>
<polyline fill="none" stroke="black" points="319.838,-119 478.162,-119 "/>
<polyline fill="none" stroke="black" points="319.838,-95 478.162,-95 "/>
<polyline fill="none" stroke="black" points="319.838,-71 478.162,-71 "/>
<text text-anchor="start" x="327.838" y="-55.8" font-family="Times,serif" font-size="14.00">_layout</text>
</g>
<!-- Admin::OrdersController -->
<g id="node5" class="node"><title>Admin::OrdersController</title>
<path fill="none" stroke="black" d="M-84.1553,-97C-84.1553,-97 50.1553,-97 50.1553,-97 56.1553,-97 62.1553,-103 62.1553,-109 62.1553,-109 62.1553,-245 62.1553,-245 62.1553,-251 56.1553,-257 50.1553,-257 50.1553,-257 -84.1553,-257 -84.1553,-257 -90.1553,-257 -96.1553,-251 -96.1553,-245 -96.1553,-245 -96.1553,-109 -96.1553,-109 -96.1553,-103 -90.1553,-97 -84.1553,-97"/>
<text text-anchor="middle" x="-17" y="-241.8" font-family="Times,serif" font-size="14.00">Admin::OrdersController</text>
<polyline fill="none" stroke="black" points="-96.1553,-235 62.1553,-235 "/>
<text text-anchor="start" x="-88.1553" y="-219.8" font-family="Times,serif" font-size="14.00">cancel</text>
<text text-anchor="start" x="-88.1553" y="-205.8" font-family="Times,serif" font-size="14.00">index</text>
<text text-anchor="start" x="-88.1553" y="-191.8" font-family="Times,serif" font-size="14.00">return</text>
<text text-anchor="start" x="-88.1553" y="-177.8" font-family="Times,serif" font-size="14.00">ship</text>
<text text-anchor="start" x="-88.1553" y="-163.8" font-family="Times,serif" font-size="14.00">shipped</text>
<text text-anchor="start" x="-88.1553" y="-149.8" font-family="Times,serif" font-size="14.00">show</text>
<polyline fill="none" stroke="black" points="-96.1553,-143 62.1553,-143 "/>
<polyline fill="none" stroke="black" points="-96.1553,-119 62.1553,-119 "/>
<text text-anchor="start" x="-88.1553" y="-103.8" font-family="Times,serif" font-size="14.00">_layout</text>
</g>
<!-- Admin::ProductsController -->
<g id="node6" class="node"><title>Admin::ProductsController</title>
<path fill="none" stroke="black" d="M-83.6069,95C-83.6069,95 61.6069,95 61.6069,95 67.6069,95 73.6069,89 73.6069,83 73.6069,83 73.6069,-53 73.6069,-53 73.6069,-59 67.6069,-65 61.6069,-65 61.6069,-65 -83.6069,-65 -83.6069,-65 -89.6069,-65 -95.6069,-59 -95.6069,-53 -95.6069,-53 -95.6069,83 -95.6069,83 -95.6069,89 -89.6069,95 -83.6069,95"/>
<text text-anchor="middle" x="-11" y="-49.8" font-family="Times,serif" font-size="14.00">Admin::ProductsController</text>
<polyline fill="none" stroke="black" points="-95.6069,-43 73.6069,-43 "/>
<text text-anchor="start" x="-87.6069" y="-27.8" font-family="Times,serif" font-size="14.00">create</text>
<text text-anchor="start" x="-87.6069" y="-13.8" font-family="Times,serif" font-size="14.00">edit</text>
<text text-anchor="start" x="-87.6069" y="0.2" font-family="Times,serif" font-size="14.00">index</text>
<text text-anchor="start" x="-87.6069" y="14.2" font-family="Times,serif" font-size="14.00">new</text>
<text text-anchor="start" x="-87.6069" y="28.2" font-family="Times,serif" font-size="14.00">update</text>
<polyline fill="none" stroke="black" points="-95.6069,35 73.6069,35 "/>
<polyline fill="none" stroke="black" points="-95.6069,59 73.6069,59 "/>
<text text-anchor="start" x="-87.6069" y="74.2" font-family="Times,serif" font-size="14.00">_layout</text>
<text text-anchor="start" x="-87.6069" y="88.2" font-family="Times,serif" font-size="14.00">product_params</text>
</g>
<!-- Admin::UsersController -->
<g id="node7" class="node"><title>Admin::UsersController</title>
<path fill="none" stroke="black" d="M267.952,255C267.952,255 396.048,255 396.048,255 402.048,255 408.048,249 408.048,243 408.048,243 408.048,149 408.048,149 408.048,143 402.048,137 396.048,137 396.048,137 267.952,137 267.952,137 261.952,137 255.952,143 255.952,149 255.952,149 255.952,243 255.952,243 255.952,249 261.952,255 267.952,255"/>
<text text-anchor="middle" x="332" y="152.2" font-family="Times,serif" font-size="14.00">Admin::UsersController</text>
<polyline fill="none" stroke="black" points="255.952,159 408.048,159 "/>
<text text-anchor="start" x="263.952" y="174.2" font-family="Times,serif" font-size="14.00">index</text>
<text text-anchor="start" x="263.952" y="188.2" font-family="Times,serif" font-size="14.00">to_admin</text>
<text text-anchor="start" x="263.952" y="202.2" font-family="Times,serif" font-size="14.00">to_normal</text>
<polyline fill="none" stroke="black" points="255.952,209 408.048,209 "/>
<polyline fill="none" stroke="black" points="255.952,233 408.048,233 "/>
<text text-anchor="start" x="263.952" y="248.2" font-family="Times,serif" font-size="14.00">_layout</text>
</g>
<!-- ApplicationController -->
<g id="node8" class="node"><title>ApplicationController</title>
<path fill="none" stroke="black" d="M108.034,-97C108.034,-97 281.966,-97 281.966,-97 287.966,-97 293.966,-103 293.966,-109 293.966,-109 293.966,-217 293.966,-217 293.966,-223 287.966,-229 281.966,-229 281.966,-229 108.034,-229 108.034,-229 102.034,-229 96.0342,-223 96.0342,-217 96.0342,-217 96.0342,-109 96.0342,-109 96.0342,-103 102.034,-97 108.034,-97"/>
<text text-anchor="middle" x="195" y="-213.8" font-family="Times,serif" font-size="14.00">ApplicationController</text>
<polyline fill="none" stroke="black" points="96.0342,-207 293.966,-207 "/>
<polyline fill="none" stroke="black" points="96.0342,-183 293.966,-183 "/>
<text text-anchor="start" x="104.034" y="-167.8" font-family="Times,serif" font-size="14.00">admin_required</text>
<text text-anchor="start" x="104.034" y="-153.8" font-family="Times,serif" font-size="14.00">configure_permitted_parameters</text>
<text text-anchor="start" x="104.034" y="-139.8" font-family="Times,serif" font-size="14.00">current_cart</text>
<polyline fill="none" stroke="black" points="96.0342,-133 293.966,-133 "/>
<text text-anchor="start" x="104.034" y="-117.8" font-family="Times,serif" font-size="14.00">_layout</text>
<text text-anchor="start" x="104.034" y="-103.8" font-family="Times,serif" font-size="14.00">find_cart</text>
</g>
<!-- CartItemsController -->
<g id="node9" class="node"><title>CartItemsController</title>
<path fill="none" stroke="black" d="M267.624,-257C267.624,-257 372.376,-257 372.376,-257 378.376,-257 384.376,-263 384.376,-269 384.376,-269 384.376,-363 384.376,-363 384.376,-369 378.376,-375 372.376,-375 372.376,-375 267.624,-375 267.624,-375 261.624,-375 255.624,-369 255.624,-363 255.624,-363 255.624,-269 255.624,-269 255.624,-263 261.624,-257 267.624,-257"/>
<text text-anchor="middle" x="320" y="-359.8" font-family="Times,serif" font-size="14.00">CartItemsController</text>
<polyline fill="none" stroke="black" points="255.624,-353 384.376,-353 "/>
<text text-anchor="start" x="263.624" y="-337.8" font-family="Times,serif" font-size="14.00">destroy</text>
<text text-anchor="start" x="263.624" y="-323.8" font-family="Times,serif" font-size="14.00">update</text>
<polyline fill="none" stroke="black" points="255.624,-317 384.376,-317 "/>
<polyline fill="none" stroke="black" points="255.624,-293 384.376,-293 "/>
<text text-anchor="start" x="263.624" y="-277.8" font-family="Times,serif" font-size="14.00">_layout</text>
<text text-anchor="start" x="263.624" y="-263.8" font-family="Times,serif" font-size="14.00">item_params</text>
</g>
<!-- CartsController -->
<g id="node10" class="node"><title>CartsController</title>
<path fill="none" stroke="black" d="M-67.5483,-289C-67.5483,-289 11.5483,-289 11.5483,-289 17.5483,-289 23.5483,-295 23.5483,-301 23.5483,-301 23.5483,-381 23.5483,-381 23.5483,-387 17.5483,-393 11.5483,-393 11.5483,-393 -67.5483,-393 -67.5483,-393 -73.5483,-393 -79.5483,-387 -79.5483,-381 -79.5483,-381 -79.5483,-301 -79.5483,-301 -79.5483,-295 -73.5483,-289 -67.5483,-289"/>
<text text-anchor="middle" x="-28" y="-377.8" font-family="Times,serif" font-size="14.00">CartsController</text>
<polyline fill="none" stroke="black" points="-79.5483,-371 23.5483,-371 "/>
<text text-anchor="start" x="-71.5483" y="-355.8" font-family="Times,serif" font-size="14.00">checkout</text>
<text text-anchor="start" x="-71.5483" y="-341.8" font-family="Times,serif" font-size="14.00">clean</text>
<polyline fill="none" stroke="black" points="-79.5483,-335 23.5483,-335 "/>
<polyline fill="none" stroke="black" points="-79.5483,-311 23.5483,-311 "/>
<text text-anchor="start" x="-71.5483" y="-295.8" font-family="Times,serif" font-size="14.00">_layout</text>
</g>
<!-- GroupsController -->
<g id="node11" class="node"><title>GroupsController</title>
<path fill="none" stroke="black" d="M-228.383,-1C-228.383,-1 -137.617,-1 -137.617,-1 -131.617,-1 -125.617,-7 -125.617,-13 -125.617,-13 -125.617,-177 -125.617,-177 -125.617,-183 -131.617,-189 -137.617,-189 -137.617,-189 -228.383,-189 -228.383,-189 -234.383,-189 -240.383,-183 -240.383,-177 -240.383,-177 -240.383,-13 -240.383,-13 -240.383,-7 -234.383,-1 -228.383,-1"/>
<text text-anchor="middle" x="-183" y="-173.8" font-family="Times,serif" font-size="14.00">GroupsController</text>
<polyline fill="none" stroke="black" points="-240.383,-167 -125.617,-167 "/>
<text text-anchor="start" x="-232.383" y="-151.8" font-family="Times,serif" font-size="14.00">create</text>
<text text-anchor="start" x="-232.383" y="-137.8" font-family="Times,serif" font-size="14.00">destroy</text>
<text text-anchor="start" x="-232.383" y="-123.8" font-family="Times,serif" font-size="14.00">edit</text>
<text text-anchor="start" x="-232.383" y="-109.8" font-family="Times,serif" font-size="14.00">index</text>
<text text-anchor="start" x="-232.383" y="-95.8" font-family="Times,serif" font-size="14.00">new</text>
<text text-anchor="start" x="-232.383" y="-81.8" font-family="Times,serif" font-size="14.00">show</text>
<text text-anchor="start" x="-232.383" y="-67.8" font-family="Times,serif" font-size="14.00">update</text>
<polyline fill="none" stroke="black" points="-240.383,-61 -125.617,-61 "/>
<polyline fill="none" stroke="black" points="-240.383,-37 -125.617,-37 "/>
<text text-anchor="start" x="-232.383" y="-21.8" font-family="Times,serif" font-size="14.00">_layout</text>
<text text-anchor="start" x="-232.383" y="-7.8" font-family="Times,serif" font-size="14.00">group_params</text>
</g>
<!-- OrdersController -->
<g id="node12" class="node"><title>OrdersController</title>
<path fill="none" stroke="black" d="M267.969,111C267.969,111 382.031,111 382.031,111 388.031,111 394.031,105 394.031,99 394.031,99 394.031,-9 394.031,-9 394.031,-15 388.031,-21 382.031,-21 382.031,-21 267.969,-21 267.969,-21 261.969,-21 255.969,-15 255.969,-9 255.969,-9 255.969,99 255.969,99 255.969,105 261.969,111 267.969,111"/>
<text text-anchor="middle" x="325" y="-5.8" font-family="Times,serif" font-size="14.00">OrdersController</text>
<polyline fill="none" stroke="black" points="255.969,1 394.031,1 "/>
<text text-anchor="start" x="263.969" y="16.2" font-family="Times,serif" font-size="14.00">create</text>
<text text-anchor="start" x="263.969" y="30.2" font-family="Times,serif" font-size="14.00">pay_with_credit_card</text>
<text text-anchor="start" x="263.969" y="44.2" font-family="Times,serif" font-size="14.00">show</text>
<polyline fill="none" stroke="black" points="255.969,51 394.031,51 "/>
<polyline fill="none" stroke="black" points="255.969,75 394.031,75 "/>
<text text-anchor="start" x="263.969" y="90.2" font-family="Times,serif" font-size="14.00">_layout</text>
<text text-anchor="start" x="263.969" y="104.2" font-family="Times,serif" font-size="14.00">order_params</text>
</g>
<!-- PostsController -->
<g id="node13" class="node"><title>PostsController</title>
<path fill="none" stroke="black" d="M124.245,127C124.245,127 215.755,127 215.755,127 221.755,127 227.755,121 227.755,115 227.755,115 227.755,-49 227.755,-49 227.755,-55 221.755,-61 215.755,-61 215.755,-61 124.245,-61 124.245,-61 118.245,-61 112.245,-55 112.245,-49 112.245,-49 112.245,115 112.245,115 112.245,121 118.245,127 124.245,127"/>
<text text-anchor="middle" x="170" y="-45.8" font-family="Times,serif" font-size="14.00">PostsController</text>
<polyline fill="none" stroke="black" points="112.245,-39 227.755,-39 "/>
<text text-anchor="start" x="120.245" y="-23.8" font-family="Times,serif" font-size="14.00">create</text>
<text text-anchor="start" x="120.245" y="-9.8" font-family="Times,serif" font-size="14.00">destroy</text>
<text text-anchor="start" x="120.245" y="4.2" font-family="Times,serif" font-size="14.00">edit</text>
<text text-anchor="start" x="120.245" y="18.2" font-family="Times,serif" font-size="14.00">new</text>
<text text-anchor="start" x="120.245" y="32.2" font-family="Times,serif" font-size="14.00">update</text>
<polyline fill="none" stroke="black" points="112.245,39 227.755,39 "/>
<polyline fill="none" stroke="black" points="112.245,63 227.755,63 "/>
<text text-anchor="start" x="120.245" y="78.2" font-family="Times,serif" font-size="14.00">_layout</text>
<text text-anchor="start" x="120.245" y="92.2" font-family="Times,serif" font-size="14.00">find_group</text>
<text text-anchor="start" x="120.245" y="106.2" font-family="Times,serif" font-size="14.00">member_required</text>
<text text-anchor="start" x="120.245" y="120.2" font-family="Times,serif" font-size="14.00">post_params</text>
</g>
<!-- ProductsController -->
<g id="node14" class="node"><title>ProductsController</title>
<path fill="none" stroke="black" d="M-244.272,-257C-244.272,-257 -145.728,-257 -145.728,-257 -139.728,-257 -133.728,-263 -133.728,-269 -133.728,-269 -133.728,-363 -133.728,-363 -133.728,-369 -139.728,-375 -145.728,-375 -145.728,-375 -244.272,-375 -244.272,-375 -250.272,-375 -256.272,-369 -256.272,-363 -256.272,-363 -256.272,-269 -256.272,-269 -256.272,-263 -250.272,-257 -244.272,-257"/>
<text text-anchor="middle" x="-195" y="-359.8" font-family="Times,serif" font-size="14.00">ProductsController</text>
<polyline fill="none" stroke="black" points="-256.272,-353 -133.728,-353 "/>
<text text-anchor="start" x="-248.272" y="-337.8" font-family="Times,serif" font-size="14.00">add_to_cart</text>
<text text-anchor="start" x="-248.272" y="-323.8" font-family="Times,serif" font-size="14.00">index</text>
<text text-anchor="start" x="-248.272" y="-309.8" font-family="Times,serif" font-size="14.00">show</text>
<polyline fill="none" stroke="black" points="-256.272,-303 -133.728,-303 "/>
<polyline fill="none" stroke="black" points="-256.272,-279 -133.728,-279 "/>
<text text-anchor="start" x="-248.272" y="-263.8" font-family="Times,serif" font-size="14.00">_layout</text>
</g>
<!-- WelcomesController -->
<g id="node15" class="node"><title>WelcomesController</title>
<path fill="none" stroke="black" d="M-323.757,335C-323.757,335 -216.243,335 -216.243,335 -210.243,335 -204.243,329 -204.243,323 -204.243,323 -204.243,255 -204.243,255 -204.243,249 -210.243,243 -216.243,243 -216.243,243 -323.757,243 -323.757,243 -329.757,243 -335.757,249 -335.757,255 -335.757,255 -335.757,323 -335.757,323 -335.757,329 -329.757,335 -323.757,335"/>
<text text-anchor="middle" x="-270" y="258.2" font-family="Times,serif" font-size="14.00">WelcomesController</text>
<polyline fill="none" stroke="black" points="-335.757,265 -204.243,265 "/>
<polyline fill="none" stroke="black" points="-335.757,289 -204.243,289 "/>
<polyline fill="none" stroke="black" points="-335.757,313 -204.243,313 "/>
<text text-anchor="start" x="-327.757" y="328.2" font-family="Times,serif" font-size="14.00">_layout</text>
</g>
</g>
</svg>
