<?xml version="1.0" encoding="UTF-8" standalone="no"?>
<!DOCTYPE svg PUBLIC "-//W3C//DTD SVG 1.1//EN"
 "http://www.w3.org/Graphics/SVG/1.1/DTD/svg11.dtd">
<!-- Generated by graphviz version 2.38.0 (20140413.2041)
 -->
<!-- Title: models_diagram Pages: 1 -->
<svg width="627pt" height="412pt"
 viewBox="0.00 0.00 626.69 412.00" xmlns="http://www.w3.org/2000/svg" xmlns:xlink="http://www.w3.org/1999/xlink">
<g id="graph0" class="graph" transform="scale(1 1) rotate(0) translate(4 408)">
<title>models_diagram</title>
<polygon fill="none" stroke="none" points="-4,4 -4,-408 622.688,-408 622.688,4 -4,4"/>
<!-- _diagram_info -->
<g id="node1" class="node"><title>_diagram_info</title>
<text text-anchor="start" x="8" y="-389.6" font-family="Times,serif" font-size="13.00">Models diagram</text>
<text text-anchor="start" x="8" y="-376.6" font-family="Times,serif" font-size="13.00">Date: May 27 2016 &#45; 23:00</text>
<text text-anchor="start" x="8" y="-363.6" font-family="Times,serif" font-size="13.00">Migration version: 20160527073541</text>
<text text-anchor="start" x="8" y="-350.6" font-family="Times,serif" font-size="13.00">Generated by RailRoady 1.4.2</text>
<text text-anchor="start" x="8" y="-337.6" font-family="Times,serif" font-size="13.00">http://railroady.prestonlee.com</text>
</g>
<!-- Cart -->
<g id="node2" class="node"><title>Cart</title>
<ellipse fill="none" stroke="black" cx="252.688" cy="-367.5" rx="27" ry="18"/>
<text text-anchor="middle" x="252.688" y="-363.3" font-family="Times,serif" font-size="14.00">Cart</text>
</g>
<!-- CartItem -->
<g id="node3" class="node"><title>CartItem</title>
<ellipse fill="none" stroke="black" cx="219.688" cy="-263" rx="41.5766" ry="18"/>
<text text-anchor="middle" x="219.688" y="-258.8" font-family="Times,serif" font-size="14.00">CartItem</text>
</g>
<!-- Cart&#45;&gt;CartItem -->
<g id="edge1" class="edge"><title>Cart&#45;&gt;CartItem</title>
<path fill="none" stroke="#3ee800" d="M244.785,-341.952C239.807,-326.493 233.382,-306.536 228.279,-290.686"/>
<ellipse fill="none" stroke="#3ee800" cx="246.013" cy="-345.767" rx="4.00001" ry="4.00001"/>
<polygon fill="#3ee800" stroke="#3ee800" points="228.21,-290.47 229.429,-279.572 226.677,-285.71 225.145,-280.951 225.145,-280.951 225.145,-280.951 226.677,-285.71 220.862,-282.33 228.21,-290.47 228.21,-290.47"/>
</g>
<!-- Product -->
<g id="node11" class="node"><title>Product</title>
<ellipse fill="none" stroke="black" cx="316.688" cy="-263" rx="37.7352" ry="18"/>
<text text-anchor="middle" x="316.688" y="-258.8" font-family="Times,serif" font-size="14.00">Product</text>
</g>
<!-- Cart&#45;&gt;Product -->
<g id="edge2" class="edge"><title>Cart&#45;&gt;Product</title>
<path fill="none" stroke="#beea7f" d="M268.123,-341.779C278.024,-325.923 290.845,-305.388 300.828,-289.401"/>
<polygon fill="#beea7f" stroke="#beea7f" points="267.984,-342.002 258.871,-348.101 265.336,-346.243 262.688,-350.484 262.688,-350.484 262.688,-350.484 265.336,-346.243 266.505,-352.868 267.984,-342.002 267.984,-342.002"/>
<polygon fill="#beea7f" stroke="#beea7f" points="301.038,-289.065 310.151,-282.966 303.686,-284.823 306.334,-280.582 306.334,-280.582 306.334,-280.582 303.686,-284.823 302.517,-278.199 301.038,-289.065 301.038,-289.065"/>
<text text-anchor="middle" x="309.853" y="-301.8" font-family="Times,serif" font-size="14.00">items</text>
</g>
<!-- Group -->
<g id="node4" class="node"><title>Group</title>
<ellipse fill="none" stroke="black" cx="441.688" cy="-263" rx="32.9081" ry="18"/>
<text text-anchor="middle" x="441.688" y="-258.8" font-family="Times,serif" font-size="14.00">Group</text>
</g>
<!-- GroupUser -->
<g id="node5" class="node"><title>GroupUser</title>
<ellipse fill="none" stroke="black" cx="376.688" cy="-104" rx="49.3032" ry="18"/>
<text text-anchor="middle" x="376.688" y="-99.8" font-family="Times,serif" font-size="14.00">GroupUser</text>
</g>
<!-- Group&#45;&gt;GroupUser -->
<g id="edge5" class="edge"><title>Group&#45;&gt;GroupUser</title>
<path fill="none" stroke="#114e24" d="M415.518,-242.75C410.631,-238.082 406.02,-232.758 402.688,-227 385.696,-197.644 379.764,-158.542 377.718,-132.608"/>
<ellipse fill="none" stroke="#114e24" cx="418.786" cy="-245.644" rx="4.00002" ry="4.00002"/>
<polygon fill="#114e24" stroke="#114e24" points="377.702,-132.346 381.55,-122.077 377.38,-127.356 377.059,-122.366 377.059,-122.366 377.059,-122.366 377.38,-127.356 372.568,-122.656 377.702,-132.346 377.702,-132.346"/>
</g>
<!-- Photo -->
<g id="node9" class="node"><title>Photo</title>
<ellipse fill="none" stroke="black" cx="316.688" cy="-177" rx="30.9967" ry="18"/>
<text text-anchor="middle" x="316.688" y="-172.8" font-family="Times,serif" font-size="14.00">Photo</text>
</g>
<!-- Group&#45;&gt;Photo -->
<g id="edge4" class="edge"><title>Group&#45;&gt;Photo</title>
<path fill="none" stroke="#0035b7" d="M406.086,-250.107C391.587,-244.352 375.116,-236.59 361.688,-227 351.25,-219.546 341.401,-209.339 333.593,-200.169"/>
<ellipse fill="none" stroke="#0035b7" cx="410.17" cy="-251.668" rx="4.00001" ry="4.00001"/>
<ellipse fill="#0035b7" stroke="#0035b7" cx="330.832" cy="-196.818" rx="4.00002" ry="4.00002"/>
</g>
<!-- Post -->
<g id="node10" class="node"><title>Post</title>
<ellipse fill="none" stroke="black" cx="591.688" cy="-104" rx="27" ry="18"/>
<text text-anchor="middle" x="591.688" y="-99.8" font-family="Times,serif" font-size="14.00">Post</text>
</g>
<!-- Group&#45;&gt;Post -->
<g id="edge3" class="edge"><title>Group&#45;&gt;Post</title>
<path fill="none" stroke="#268e21" d="M482.011,-258.317C522.232,-253.711 579.962,-244.245 593.688,-227 615.094,-200.105 608.559,-158.288 600.905,-131.272"/>
<ellipse fill="none" stroke="#268e21" cx="477.943" cy="-258.764" rx="4.00001" ry="4.00001"/>
<polygon fill="#268e21" stroke="#268e21" points="600.903,-131.265 602.274,-120.385 599.437,-126.485 597.972,-121.704 597.972,-121.704 597.972,-121.704 599.437,-126.485 593.669,-123.023 600.903,-131.265 600.903,-131.265"/>
</g>
<!-- User -->
<g id="node12" class="node"><title>User</title>
<ellipse fill="none" stroke="black" cx="474.688" cy="-177" rx="27" ry="18"/>
<text text-anchor="middle" x="474.688" y="-172.8" font-family="Times,serif" font-size="14.00">User</text>
</g>
<!-- Group&#45;&gt;User -->
<g id="edge6" class="edge"><title>Group&#45;&gt;User</title>
<path fill="none" stroke="#704fc0" d="M415.619,-240.709C408.379,-232.197 403.84,-222.238 409.37,-213 416.253,-201.503 428.348,-193.568 440.274,-188.199"/>
<polygon fill="#704fc0" stroke="#704fc0" points="415.817,-240.912 419.6,-251.205 419.316,-244.484 422.815,-248.056 422.815,-248.056 422.815,-248.056 419.316,-244.484 426.03,-244.907 415.817,-240.912 415.817,-240.912"/>
<polygon fill="#704fc0" stroke="#704fc0" points="440.416,-188.142 451.372,-188.602 445.058,-186.283 449.699,-184.424 449.699,-184.424 449.699,-184.424 445.058,-186.283 448.026,-180.247 440.416,-188.142 440.416,-188.142"/>
<text text-anchor="middle" x="434.346" y="-215.8" font-family="Times,serif" font-size="14.00">members</text>
</g>
<!-- Order -->
<g id="node6" class="node"><title>Order</title>
<ellipse fill="none" stroke="black" cx="474.688" cy="-104" rx="30.9619" ry="18"/>
<text text-anchor="middle" x="474.688" y="-99.8" font-family="Times,serif" font-size="14.00">Order</text>
</g>
<!-- OrderInfo -->
<g id="node7" class="node"><title>OrderInfo</title>
<ellipse fill="none" stroke="black" cx="419.688" cy="-18" rx="45.4269" ry="18"/>
<text text-anchor="middle" x="419.688" y="-13.8" font-family="Times,serif" font-size="14.00">OrderInfo</text>
</g>
<!-- Order&#45;&gt;OrderInfo -->
<g id="edge8" class="edge"><title>Order&#45;&gt;OrderInfo</title>
<path fill="none" stroke="#779568" d="M459.534,-79.8554C451.95,-68.273 442.785,-54.2764 435.158,-42.628"/>
<ellipse fill="none" stroke="#779568" cx="461.892" cy="-83.4575" rx="4.00002" ry="4.00002"/>
<ellipse fill="#779568" stroke="#779568" cx="432.827" cy="-39.0678" rx="4.00002" ry="4.00002"/>
<text text-anchor="middle" x="460.964" y="-56.8" font-family="Times,serif" font-size="14.00">info</text>
</g>
<!-- OrderItem -->
<g id="node8" class="node"><title>OrderItem</title>
<ellipse fill="none" stroke="black" cx="529.688" cy="-18" rx="46.8719" ry="18"/>
<text text-anchor="middle" x="529.688" y="-13.8" font-family="Times,serif" font-size="14.00">OrderItem</text>
</g>
<!-- Order&#45;&gt;OrderItem -->
<g id="edge7" class="edge"><title>Order&#45;&gt;OrderItem</title>
<path fill="none" stroke="#2645b9" d="M489.842,-79.8554C497.068,-68.8193 505.729,-55.5915 513.128,-44.2916"/>
<ellipse fill="none" stroke="#2645b9" cx="487.483" cy="-83.4575" rx="4.00002" ry="4.00002"/>
<polygon fill="#2645b9" stroke="#2645b9" points="513.261,-44.0875 522.504,-38.1863 516,-39.9044 518.739,-35.7213 518.739,-35.7213 518.739,-35.7213 516,-39.9044 514.975,-33.2562 513.261,-44.0875 513.261,-44.0875"/>
<text text-anchor="middle" x="519.853" y="-56.8" font-family="Times,serif" font-size="14.00">items</text>
</g>
<!-- Product&#45;&gt;Photo -->
<g id="edge9" class="edge"><title>Product&#45;&gt;Photo</title>
<path fill="none" stroke="#12f1df" d="M316.688,-236.257C316.688,-225.815 316.688,-213.788 316.688,-203.383"/>
<ellipse fill="none" stroke="#12f1df" cx="316.688" cy="-240.595" rx="4" ry="4"/>
<ellipse fill="#12f1df" stroke="#12f1df" cx="316.688" cy="-199.095" rx="4" ry="4"/>
</g>
<!-- User&#45;&gt;Group -->
<g id="edge11" class="edge"><title>User&#45;&gt;Group</title>
<path fill="none" stroke="#ea5187" d="M468.64,-203.152C466.471,-210.92 463.784,-219.421 460.688,-227 459.407,-230.136 457.92,-233.354 456.353,-236.508"/>
<ellipse fill="none" stroke="#ea5187" cx="469.756" cy="-198.956" rx="4.00001" ry="4.00001"/>
<polygon fill="#ea5187" stroke="#ea5187" points="456.207,-236.785 447.559,-243.528 453.872,-241.207 451.538,-245.628 451.538,-245.628 451.538,-245.628 453.872,-241.207 455.518,-247.729 456.207,-236.785 456.207,-236.785"/>
</g>
<!-- User&#45;&gt;Group -->
<g id="edge14" class="edge"><title>User&#45;&gt;Group</title>
<path fill="none" stroke="#d03ab7" d="M479.858,-204.922C480.199,-212.305 479.522,-220.157 476.688,-227 474.644,-231.935 471.529,-236.536 467.984,-240.676"/>
<polygon fill="#d03ab7" stroke="#d03ab7" points="479.855,-204.895 483.291,-194.481 479.335,-199.922 478.816,-194.949 478.816,-194.949 478.816,-194.949 479.335,-199.922 474.34,-195.416 479.855,-204.895 479.855,-204.895"/>
<polygon fill="#d03ab7" stroke="#d03ab7" points="467.789,-240.876 457.584,-244.89 464.297,-244.454 460.805,-248.033 460.805,-248.033 460.805,-248.033 464.297,-244.454 464.026,-251.176 467.789,-240.876 467.789,-240.876"/>
<text text-anchor="middle" x="534.281" y="-215.8" font-family="Times,serif" font-size="14.00">participated_groups</text>
</g>
<!-- User&#45;&gt;GroupUser -->
<g id="edge13" class="edge"><title>User&#45;&gt;GroupUser</title>
<path fill="none" stroke="#4ab8cf" d="M450.149,-158.222C436.85,-148.587 420.318,-136.61 406.307,-126.459"/>
<ellipse fill="none" stroke="#4ab8cf" cx="453.474" cy="-160.631" rx="4.00002" ry="4.00002"/>
<polygon fill="#4ab8cf" stroke="#4ab8cf" points="406.058,-126.278 400.6,-116.767 402.009,-123.345 397.96,-120.411 397.96,-120.411 397.96,-120.411 402.009,-123.345 395.32,-124.056 406.058,-126.278 406.058,-126.278"/>
</g>
<!-- User&#45;&gt;Order -->
<g id="edge10" class="edge"><title>User&#45;&gt;Order</title>
<path fill="none" stroke="#af2d62" d="M474.688,-150.791C474.688,-144.832 474.688,-138.45 474.688,-132.399"/>
<ellipse fill="none" stroke="#af2d62" cx="474.688" cy="-154.813" rx="4" ry="4"/>
<polygon fill="#af2d62" stroke="#af2d62" points="474.688,-132.029 479.188,-122.029 474.688,-127.029 474.688,-122.029 474.688,-122.029 474.688,-122.029 474.688,-127.029 470.188,-122.029 474.688,-132.029 474.688,-132.029"/>
</g>
<!-- User&#45;&gt;Post -->
<g id="edge12" class="edge"><title>User&#45;&gt;Post</title>
<path fill="none" stroke="#bbdffe" d="M500.996,-160.035C519.606,-148.742 544.527,-133.619 563.536,-122.084"/>
<ellipse fill="none" stroke="#bbdffe" cx="497.428" cy="-162.201" rx="4.00002" ry="4.00002"/>
<polygon fill="#bbdffe" stroke="#bbdffe" points="563.79,-121.93 574.673,-120.589 568.064,-119.336 572.339,-116.742 572.339,-116.742 572.339,-116.742 568.064,-119.336 570.004,-112.895 563.79,-121.93 563.79,-121.93"/>
</g>
</g>
</svg>
