<?xml version="1.0" encoding="UTF-8" standalone="no"?>
<!DOCTYPE svg PUBLIC "-//W3C//DTD SVG 1.1//EN"
 "http://www.w3.org/Graphics/SVG/1.1/DTD/svg11.dtd">
<!-- Generated by graphviz version 2.38.0 (20140413.2041)
 -->
<!-- Title: models_diagram Pages: 1 -->
<svg width="862pt" height="938pt"
 viewBox="0.00 0.00 862.19 938.00" xmlns="http://www.w3.org/2000/svg" xmlns:xlink="http://www.w3.org/1999/xlink">
<g id="graph0" class="graph" transform="scale(1 1) rotate(0) translate(4 934)">
<title>models_diagram</title>
<polygon fill="none" stroke="none" points="-4,4 -4,-934 858.193,-934 858.193,4 -4,4"/>
<!-- _diagram_info -->
<g id="node1" class="node"><title>_diagram_info</title>
<text text-anchor="start" x="8" y="-915.6" font-family="Times,serif" font-size="13.00">Models diagram</text>
<text text-anchor="start" x="8" y="-902.6" font-family="Times,serif" font-size="13.00">Date: May 27 2016 &#45; 23:00</text>
<text text-anchor="start" x="8" y="-889.6" font-family="Times,serif" font-size="13.00">Migration version: 20160527073541</text>
<text text-anchor="start" x="8" y="-876.6" font-family="Times,serif" font-size="13.00">Generated by RailRoady 1.4.2</text>
<text text-anchor="start" x="8" y="-863.6" font-family="Times,serif" font-size="13.00">http://railroady.prestonlee.com</text>
</g>
<!-- Cart -->
<g id="node2" class="node"><title>Cart</title>
<path fill="none" stroke="black" d="M237.182,-857.5C237.182,-857.5 346.193,-857.5 346.193,-857.5 352.193,-857.5 358.193,-863.5 358.193,-869.5 358.193,-869.5 358.193,-917.5 358.193,-917.5 358.193,-923.5 352.193,-929.5 346.193,-929.5 346.193,-929.5 237.182,-929.5 237.182,-929.5 231.182,-929.5 225.182,-923.5 225.182,-917.5 225.182,-917.5 225.182,-869.5 225.182,-869.5 225.182,-863.5 231.182,-857.5 237.182,-857.5"/>
<text text-anchor="middle" x="291.688" y="-914.3" font-family="Times,serif" font-size="14.00">Cart</text>
<polyline fill="none" stroke="black" points="225.182,-907.5 358.193,-907.5 "/>
<text text-anchor="start" x="233.182" y="-892.3" font-family="Times,serif" font-size="14.00">id :INTEGER</text>
<text text-anchor="start" x="233.182" y="-878.3" font-family="Times,serif" font-size="14.00">created_at :datetime</text>
<text text-anchor="start" x="233.182" y="-864.3" font-family="Times,serif" font-size="14.00">updated_at :datetime</text>
</g>
<!-- CartItem -->
<g id="node3" class="node"><title>CartItem</title>
<path fill="none" stroke="black" d="M191.182,-685.5C191.182,-685.5 300.193,-685.5 300.193,-685.5 306.193,-685.5 312.193,-691.5 312.193,-697.5 312.193,-697.5 312.193,-787.5 312.193,-787.5 312.193,-793.5 306.193,-799.5 300.193,-799.5 300.193,-799.5 191.182,-799.5 191.182,-799.5 185.182,-799.5 179.182,-793.5 179.182,-787.5 179.182,-787.5 179.182,-697.5 179.182,-697.5 179.182,-691.5 185.182,-685.5 191.182,-685.5"/>
<text text-anchor="middle" x="245.688" y="-784.3" font-family="Times,serif" font-size="14.00">CartItem</text>
<polyline fill="none" stroke="black" points="179.182,-777.5 312.193,-777.5 "/>
<text text-anchor="start" x="187.182" y="-762.3" font-family="Times,serif" font-size="14.00">id :INTEGER</text>
<text text-anchor="start" x="187.182" y="-748.3" font-family="Times,serif" font-size="14.00">cart_id :integer</text>
<text text-anchor="start" x="187.182" y="-734.3" font-family="Times,serif" font-size="14.00">product_id :integer</text>
<text text-anchor="start" x="187.182" y="-720.3" font-family="Times,serif" font-size="14.00">created_at :datetime</text>
<text text-anchor="start" x="187.182" y="-706.3" font-family="Times,serif" font-size="14.00">updated_at :datetime</text>
<text text-anchor="start" x="187.182" y="-692.3" font-family="Times,serif" font-size="14.00">quantity :integer</text>
</g>
<!-- Cart&#45;&gt;CartItem -->
<g id="edge1" class="edge"><title>Cart&#45;&gt;CartItem</title>
<path fill="none" stroke="#09af35" d="M278.346,-849.285C274.487,-836.783 270.184,-822.845 266.001,-809.296"/>
<ellipse fill="none" stroke="#09af35" cx="279.606" cy="-853.367" rx="4.00001" ry="4.00001"/>
<polygon fill="#09af35" stroke="#09af35" points="265.934,-809.08 267.284,-798.198 264.459,-804.303 262.984,-799.525 262.984,-799.525 262.984,-799.525 264.459,-804.303 258.684,-800.853 265.934,-809.08 265.934,-809.08"/>
</g>
<!-- Product -->
<g id="node11" class="node"><title>Product</title>
<path fill="none" stroke="black" d="M342.182,-678.5C342.182,-678.5 451.193,-678.5 451.193,-678.5 457.193,-678.5 463.193,-684.5 463.193,-690.5 463.193,-690.5 463.193,-794.5 463.193,-794.5 463.193,-800.5 457.193,-806.5 451.193,-806.5 451.193,-806.5 342.182,-806.5 342.182,-806.5 336.182,-806.5 330.182,-800.5 330.182,-794.5 330.182,-794.5 330.182,-690.5 330.182,-690.5 330.182,-684.5 336.182,-678.5 342.182,-678.5"/>
<text text-anchor="middle" x="396.688" y="-791.3" font-family="Times,serif" font-size="14.00">Product</text>
<polyline fill="none" stroke="black" points="330.182,-784.5 463.193,-784.5 "/>
<text text-anchor="start" x="338.182" y="-769.3" font-family="Times,serif" font-size="14.00">id :INTEGER</text>
<text text-anchor="start" x="338.182" y="-755.3" font-family="Times,serif" font-size="14.00">title :varchar</text>
<text text-anchor="start" x="338.182" y="-741.3" font-family="Times,serif" font-size="14.00">description :text</text>
<text text-anchor="start" x="338.182" y="-727.3" font-family="Times,serif" font-size="14.00">quantity :integer</text>
<text text-anchor="start" x="338.182" y="-713.3" font-family="Times,serif" font-size="14.00">price :integer</text>
<text text-anchor="start" x="338.182" y="-699.3" font-family="Times,serif" font-size="14.00">created_at :datetime</text>
<text text-anchor="start" x="338.182" y="-685.3" font-family="Times,serif" font-size="14.00">updated_at :datetime</text>
</g>
<!-- Cart&#45;&gt;Product -->
<g id="edge2" class="edge"><title>Cart&#45;&gt;Product</title>
<path fill="none" stroke="#2d5894" d="M322.515,-848.754C330.008,-838.122 338.214,-826.476 346.352,-814.929"/>
<polygon fill="#2d5894" stroke="#2d5894" points="322.332,-849.015 312.893,-854.597 319.451,-853.102 316.571,-857.189 316.571,-857.189 316.571,-857.189 319.451,-853.102 320.25,-859.781 322.332,-849.015 322.332,-849.015"/>
<polygon fill="#2d5894" stroke="#2d5894" points="346.493,-814.729 355.932,-809.147 349.373,-810.642 352.253,-806.554 352.253,-806.554 352.253,-806.554 349.373,-810.642 348.575,-803.962 346.493,-814.729 346.493,-814.729"/>
<text text-anchor="middle" x="352.853" y="-827.8" font-family="Times,serif" font-size="14.00">items</text>
</g>
<!-- Group -->
<g id="node4" class="node"><title>Group</title>
<path fill="none" stroke="black" d="M515.182,-678.5C515.182,-678.5 624.193,-678.5 624.193,-678.5 630.193,-678.5 636.193,-684.5 636.193,-690.5 636.193,-690.5 636.193,-794.5 636.193,-794.5 636.193,-800.5 630.193,-806.5 624.193,-806.5 624.193,-806.5 515.182,-806.5 515.182,-806.5 509.182,-806.5 503.182,-800.5 503.182,-794.5 503.182,-794.5 503.182,-690.5 503.182,-690.5 503.182,-684.5 509.182,-678.5 515.182,-678.5"/>
<text text-anchor="middle" x="569.688" y="-791.3" font-family="Times,serif" font-size="14.00">Group</text>
<polyline fill="none" stroke="black" points="503.182,-784.5 636.193,-784.5 "/>
<text text-anchor="start" x="511.182" y="-769.3" font-family="Times,serif" font-size="14.00">id :INTEGER</text>
<text text-anchor="start" x="511.182" y="-755.3" font-family="Times,serif" font-size="14.00">title :varchar</text>
<text text-anchor="start" x="511.182" y="-741.3" font-family="Times,serif" font-size="14.00">description :text</text>
<text text-anchor="start" x="511.182" y="-727.3" font-family="Times,serif" font-size="14.00">created_at :datetime</text>
<text text-anchor="start" x="511.182" y="-713.3" font-family="Times,serif" font-size="14.00">updated_at :datetime</text>
<text text-anchor="start" x="511.182" y="-699.3" font-family="Times,serif" font-size="14.00">user_id :integer</text>
<text text-anchor="start" x="511.182" y="-685.3" font-family="Times,serif" font-size="14.00">posts_count :integer</text>
</g>
<!-- GroupUser -->
<g id="node5" class="node"><title>GroupUser</title>
<path fill="none" stroke="black" d="M401.182,-221.5C401.182,-221.5 510.193,-221.5 510.193,-221.5 516.193,-221.5 522.193,-227.5 522.193,-233.5 522.193,-233.5 522.193,-309.5 522.193,-309.5 522.193,-315.5 516.193,-321.5 510.193,-321.5 510.193,-321.5 401.182,-321.5 401.182,-321.5 395.182,-321.5 389.182,-315.5 389.182,-309.5 389.182,-309.5 389.182,-233.5 389.182,-233.5 389.182,-227.5 395.182,-221.5 401.182,-221.5"/>
<text text-anchor="middle" x="455.688" y="-306.3" font-family="Times,serif" font-size="14.00">GroupUser</text>
<polyline fill="none" stroke="black" points="389.182,-299.5 522.193,-299.5 "/>
<text text-anchor="start" x="397.182" y="-284.3" font-family="Times,serif" font-size="14.00">id :INTEGER</text>
<text text-anchor="start" x="397.182" y="-270.3" font-family="Times,serif" font-size="14.00">group_id :integer</text>
<text text-anchor="start" x="397.182" y="-256.3" font-family="Times,serif" font-size="14.00">user_id :integer</text>
<text text-anchor="start" x="397.182" y="-242.3" font-family="Times,serif" font-size="14.00">created_at :datetime</text>
<text text-anchor="start" x="397.182" y="-228.3" font-family="Times,serif" font-size="14.00">updated_at :datetime</text>
</g>
<!-- Group&#45;&gt;GroupUser -->
<g id="edge5" class="edge"><title>Group&#45;&gt;GroupUser</title>
<path fill="none" stroke="#86d1ef" d="M524.943,-671.181C523.075,-667.447 521.309,-663.707 519.688,-660 513.769,-646.464 513.823,-642.438 510.688,-628 504.534,-599.662 478.359,-425.317 464.453,-331.743"/>
<ellipse fill="none" stroke="#86d1ef" cx="526.811" cy="-674.789" rx="4.00002" ry="4.00002"/>
<polygon fill="#86d1ef" stroke="#86d1ef" points="464.453,-331.738 467.435,-321.185 463.718,-326.792 462.984,-321.846 462.984,-321.846 462.984,-321.846 463.718,-326.792 458.533,-322.507 464.453,-331.738 464.453,-331.738"/>
</g>
<!-- Photo -->
<g id="node9" class="node"><title>Photo</title>
<path fill="none" stroke="black" d="M342.182,-450.5C342.182,-450.5 451.193,-450.5 451.193,-450.5 457.193,-450.5 463.193,-456.5 463.193,-462.5 463.193,-462.5 463.193,-552.5 463.193,-552.5 463.193,-558.5 457.193,-564.5 451.193,-564.5 451.193,-564.5 342.182,-564.5 342.182,-564.5 336.182,-564.5 330.182,-558.5 330.182,-552.5 330.182,-552.5 330.182,-462.5 330.182,-462.5 330.182,-456.5 336.182,-450.5 342.182,-450.5"/>
<text text-anchor="middle" x="396.688" y="-549.3" font-family="Times,serif" font-size="14.00">Photo</text>
<polyline fill="none" stroke="black" points="330.182,-542.5 463.193,-542.5 "/>
<text text-anchor="start" x="338.182" y="-527.3" font-family="Times,serif" font-size="14.00">id :INTEGER</text>
<text text-anchor="start" x="338.182" y="-513.3" font-family="Times,serif" font-size="14.00">product_id :integer</text>
<text text-anchor="start" x="338.182" y="-499.3" font-family="Times,serif" font-size="14.00">image :varchar</text>
<text text-anchor="start" x="338.182" y="-485.3" font-family="Times,serif" font-size="14.00">created_at :datetime</text>
<text text-anchor="start" x="338.182" y="-471.3" font-family="Times,serif" font-size="14.00">updated_at :datetime</text>
<text text-anchor="start" x="338.182" y="-457.3" font-family="Times,serif" font-size="14.00">group_id :varchar</text>
</g>
<!-- Group&#45;&gt;Photo -->
<g id="edge4" class="edge"><title>Group&#45;&gt;Photo</title>
<path fill="none" stroke="#9df771" d="M497.126,-681.806C490.201,-674.786 483.577,-667.457 477.688,-660 456.648,-633.356 438.304,-600.454 424.419,-572.126"/>
<ellipse fill="none" stroke="#9df771" cx="500.161" cy="-684.812" rx="4.00002" ry="4.00002"/>
<ellipse fill="#9df771" stroke="#9df771" cx="422.545" cy="-568.25" rx="4.00002" ry="4.00002"/>
</g>
<!-- Post -->
<g id="node10" class="node"><title>Post</title>
<path fill="none" stroke="black" d="M733.182,-214.5C733.182,-214.5 842.193,-214.5 842.193,-214.5 848.193,-214.5 854.193,-220.5 854.193,-226.5 854.193,-226.5 854.193,-316.5 854.193,-316.5 854.193,-322.5 848.193,-328.5 842.193,-328.5 842.193,-328.5 733.182,-328.5 733.182,-328.5 727.182,-328.5 721.182,-322.5 721.182,-316.5 721.182,-316.5 721.182,-226.5 721.182,-226.5 721.182,-220.5 727.182,-214.5 733.182,-214.5"/>
<text text-anchor="middle" x="787.688" y="-313.3" font-family="Times,serif" font-size="14.00">Post</text>
<polyline fill="none" stroke="black" points="721.182,-306.5 854.193,-306.5 "/>
<text text-anchor="start" x="729.182" y="-291.3" font-family="Times,serif" font-size="14.00">id :INTEGER</text>
<text text-anchor="start" x="729.182" y="-277.3" font-family="Times,serif" font-size="14.00">content :text</text>
<text text-anchor="start" x="729.182" y="-263.3" font-family="Times,serif" font-size="14.00">group_id :integer</text>
<text text-anchor="start" x="729.182" y="-249.3" font-family="Times,serif" font-size="14.00">created_at :datetime</text>
<text text-anchor="start" x="729.182" y="-235.3" font-family="Times,serif" font-size="14.00">updated_at :datetime</text>
<text text-anchor="start" x="729.182" y="-221.3" font-family="Times,serif" font-size="14.00">user_id :integer</text>
</g>
<!-- Group&#45;&gt;Post -->
<g id="edge3" class="edge"><title>Group&#45;&gt;Post</title>
<path fill="none" stroke="#6d2d0a" d="M644.004,-713.631C670.677,-700.651 699.195,-682.923 719.688,-660 798.974,-571.312 801.851,-423.937 795.589,-338.782"/>
<ellipse fill="none" stroke="#6d2d0a" cx="640.153" cy="-715.455" rx="4.00002" ry="4.00002"/>
<polygon fill="#6d2d0a" stroke="#6d2d0a" points="795.581,-338.682 799.27,-328.355 795.183,-333.698 794.785,-328.714 794.785,-328.714 794.785,-328.714 795.183,-333.698 790.299,-329.072 795.581,-338.682 795.581,-338.682"/>
</g>
<!-- User -->
<g id="node12" class="node"><title>User</title>
<path fill="none" stroke="black" d="M531.41,-387.5C531.41,-387.5 711.966,-387.5 711.966,-387.5 717.966,-387.5 723.966,-393.5 723.966,-399.5 723.966,-399.5 723.966,-615.5 723.966,-615.5 723.966,-621.5 717.966,-627.5 711.966,-627.5 711.966,-627.5 531.41,-627.5 531.41,-627.5 525.41,-627.5 519.41,-621.5 519.41,-615.5 519.41,-615.5 519.41,-399.5 519.41,-399.5 519.41,-393.5 525.41,-387.5 531.41,-387.5"/>
<text text-anchor="middle" x="621.688" y="-612.3" font-family="Times,serif" font-size="14.00">User</text>
<polyline fill="none" stroke="black" points="519.41,-605.5 723.966,-605.5 "/>
<text text-anchor="start" x="527.41" y="-590.3" font-family="Times,serif" font-size="14.00">id :INTEGER</text>
<text text-anchor="start" x="527.41" y="-576.3" font-family="Times,serif" font-size="14.00">email :varchar</text>
<text text-anchor="start" x="527.41" y="-562.3" font-family="Times,serif" font-size="14.00">encrypted_password :varchar</text>
<text text-anchor="start" x="527.41" y="-548.3" font-family="Times,serif" font-size="14.00">reset_password_token :varchar</text>
<text text-anchor="start" x="527.41" y="-534.3" font-family="Times,serif" font-size="14.00">reset_password_sent_at :datetime</text>
<text text-anchor="start" x="527.41" y="-520.3" font-family="Times,serif" font-size="14.00">remember_created_at :datetime</text>
<text text-anchor="start" x="527.41" y="-506.3" font-family="Times,serif" font-size="14.00">sign_in_count :integer</text>
<text text-anchor="start" x="527.41" y="-492.3" font-family="Times,serif" font-size="14.00">current_sign_in_at :datetime</text>
<text text-anchor="start" x="527.41" y="-478.3" font-family="Times,serif" font-size="14.00">last_sign_in_at :datetime</text>
<text text-anchor="start" x="527.41" y="-464.3" font-family="Times,serif" font-size="14.00">current_sign_in_ip :varchar</text>
<text text-anchor="start" x="527.41" y="-450.3" font-family="Times,serif" font-size="14.00">last_sign_in_ip :varchar</text>
<text text-anchor="start" x="527.41" y="-436.3" font-family="Times,serif" font-size="14.00">created_at :datetime</text>
<text text-anchor="start" x="527.41" y="-422.3" font-family="Times,serif" font-size="14.00">updated_at :datetime</text>
<text text-anchor="start" x="527.41" y="-408.3" font-family="Times,serif" font-size="14.00">is_admin :boolean</text>
<text text-anchor="start" x="527.41" y="-394.3" font-family="Times,serif" font-size="14.00">name :varchar</text>
</g>
<!-- Group&#45;&gt;User -->
<g id="edge6" class="edge"><title>Group&#45;&gt;User</title>
<path fill="none" stroke="#f65653" d="M524.756,-668.57C523.708,-661.043 524.047,-653.43 526.37,-646 527.294,-643.046 528.306,-640.099 529.398,-637.165"/>
<polygon fill="#f65653" stroke="#f65653" points="524.767,-668.618 522.484,-679.344 525.824,-673.505 526.882,-678.392 526.882,-678.392 526.882,-678.392 525.824,-673.505 531.28,-677.44 524.767,-668.618 524.767,-668.618"/>
<polygon fill="#f65653" stroke="#f65653" points="529.415,-637.121 537.318,-629.518 531.279,-632.481 533.142,-627.841 533.142,-627.841 533.142,-627.841 531.279,-632.481 528.966,-626.164 529.415,-637.121 529.415,-637.121"/>
<text text-anchor="middle" x="551.346" y="-648.8" font-family="Times,serif" font-size="14.00">members</text>
</g>
<!-- Order -->
<g id="node6" class="node"><title>Order</title>
<path fill="none" stroke="black" d="M552.41,-193.5C552.41,-193.5 690.966,-193.5 690.966,-193.5 696.966,-193.5 702.966,-199.5 702.966,-205.5 702.966,-205.5 702.966,-337.5 702.966,-337.5 702.966,-343.5 696.966,-349.5 690.966,-349.5 690.966,-349.5 552.41,-349.5 552.41,-349.5 546.41,-349.5 540.41,-343.5 540.41,-337.5 540.41,-337.5 540.41,-205.5 540.41,-205.5 540.41,-199.5 546.41,-193.5 552.41,-193.5"/>
<text text-anchor="middle" x="621.688" y="-334.3" font-family="Times,serif" font-size="14.00">Order</text>
<polyline fill="none" stroke="black" points="540.41,-327.5 702.966,-327.5 "/>
<text text-anchor="start" x="548.41" y="-312.3" font-family="Times,serif" font-size="14.00">id :INTEGER</text>
<text text-anchor="start" x="548.41" y="-298.3" font-family="Times,serif" font-size="14.00">user_id :integer</text>
<text text-anchor="start" x="548.41" y="-284.3" font-family="Times,serif" font-size="14.00">total :integer</text>
<text text-anchor="start" x="548.41" y="-270.3" font-family="Times,serif" font-size="14.00">created_at :datetime</text>
<text text-anchor="start" x="548.41" y="-256.3" font-family="Times,serif" font-size="14.00">updated_at :datetime</text>
<text text-anchor="start" x="548.41" y="-242.3" font-family="Times,serif" font-size="14.00">token :varchar</text>
<text text-anchor="start" x="548.41" y="-228.3" font-family="Times,serif" font-size="14.00">is_paid :boolean</text>
<text text-anchor="start" x="548.41" y="-214.3" font-family="Times,serif" font-size="14.00">payment_method :varchar</text>
<text text-anchor="start" x="548.41" y="-200.3" font-family="Times,serif" font-size="14.00">aasm_state :varchar</text>
</g>
<!-- OrderInfo -->
<g id="node7" class="node"><title>OrderInfo</title>
<path fill="none" stroke="black" d="M466.403,-0.5C466.403,-0.5 604.972,-0.5 604.972,-0.5 610.972,-0.5 616.972,-6.5 616.972,-12.5 616.972,-12.5 616.972,-130.5 616.972,-130.5 616.972,-136.5 610.972,-142.5 604.972,-142.5 604.972,-142.5 466.403,-142.5 466.403,-142.5 460.403,-142.5 454.403,-136.5 454.403,-130.5 454.403,-130.5 454.403,-12.5 454.403,-12.5 454.403,-6.5 460.403,-0.5 466.403,-0.5"/>
<text text-anchor="middle" x="535.688" y="-127.3" font-family="Times,serif" font-size="14.00">OrderInfo</text>
<polyline fill="none" stroke="black" points="454.403,-120.5 616.972,-120.5 "/>
<text text-anchor="start" x="462.403" y="-105.3" font-family="Times,serif" font-size="14.00">id :INTEGER</text>
<text text-anchor="start" x="462.403" y="-91.3" font-family="Times,serif" font-size="14.00">order_id :integer</text>
<text text-anchor="start" x="462.403" y="-77.3" font-family="Times,serif" font-size="14.00">billing_name :varchar</text>
<text text-anchor="start" x="462.403" y="-63.3" font-family="Times,serif" font-size="14.00">billing_address :varchar</text>
<text text-anchor="start" x="462.403" y="-49.3" font-family="Times,serif" font-size="14.00">shipping_name :varchar</text>
<text text-anchor="start" x="462.403" y="-35.3" font-family="Times,serif" font-size="14.00">shipping_address :varchar</text>
<text text-anchor="start" x="462.403" y="-21.3" font-family="Times,serif" font-size="14.00">created_at :datetime</text>
<text text-anchor="start" x="462.403" y="-7.3" font-family="Times,serif" font-size="14.00">updated_at :datetime</text>
</g>
<!-- Order&#45;&gt;OrderInfo -->
<g id="edge8" class="edge"><title>Order&#45;&gt;OrderInfo</title>
<path fill="none" stroke="#72c0f3" d="M584.935,-185.883C579.796,-174.052 574.536,-161.94 569.455,-150.244"/>
<ellipse fill="none" stroke="#72c0f3" cx="586.598" cy="-189.712" rx="4.00002" ry="4.00002"/>
<ellipse fill="#72c0f3" stroke="#72c0f3" cx="567.74" cy="-146.294" rx="4.00002" ry="4.00002"/>
<text text-anchor="middle" x="589.964" y="-163.8" font-family="Times,serif" font-size="14.00">info</text>
</g>
<!-- OrderItem -->
<g id="node8" class="node"><title>OrderItem</title>
<path fill="none" stroke="black" d="M646.969,-7.5C646.969,-7.5 768.407,-7.5 768.407,-7.5 774.407,-7.5 780.407,-13.5 780.407,-19.5 780.407,-19.5 780.407,-123.5 780.407,-123.5 780.407,-129.5 774.407,-135.5 768.407,-135.5 768.407,-135.5 646.969,-135.5 646.969,-135.5 640.969,-135.5 634.969,-129.5 634.969,-123.5 634.969,-123.5 634.969,-19.5 634.969,-19.5 634.969,-13.5 640.969,-7.5 646.969,-7.5"/>
<text text-anchor="middle" x="707.688" y="-120.3" font-family="Times,serif" font-size="14.00">OrderItem</text>
<polyline fill="none" stroke="black" points="634.969,-113.5 780.407,-113.5 "/>
<text text-anchor="start" x="642.969" y="-98.3" font-family="Times,serif" font-size="14.00">id :INTEGER</text>
<text text-anchor="start" x="642.969" y="-84.3" font-family="Times,serif" font-size="14.00">order_id :integer</text>
<text text-anchor="start" x="642.969" y="-70.3" font-family="Times,serif" font-size="14.00">product_name :varchar</text>
<text text-anchor="start" x="642.969" y="-56.3" font-family="Times,serif" font-size="14.00">price :integer</text>
<text text-anchor="start" x="642.969" y="-42.3" font-family="Times,serif" font-size="14.00">quantity :integer</text>
<text text-anchor="start" x="642.969" y="-28.3" font-family="Times,serif" font-size="14.00">created_at :datetime</text>
<text text-anchor="start" x="642.969" y="-14.3" font-family="Times,serif" font-size="14.00">updated_at :datetime</text>
</g>
<!-- Order&#45;&gt;OrderItem -->
<g id="edge7" class="edge"><title>Order&#45;&gt;OrderItem</title>
<path fill="none" stroke="#c801fd" d="M658.514,-185.713C664.383,-172.203 670.407,-158.331 676.14,-145.134"/>
<ellipse fill="none" stroke="#c801fd" cx="656.777" cy="-189.712" rx="4.00002" ry="4.00002"/>
<polygon fill="#c801fd" stroke="#c801fd" points="676.271,-144.831 684.383,-137.452 678.263,-140.245 680.255,-135.659 680.255,-135.659 680.255,-135.659 678.263,-140.245 676.128,-133.866 676.271,-144.831 676.271,-144.831"/>
<text text-anchor="middle" x="681.853" y="-163.8" font-family="Times,serif" font-size="14.00">items</text>
</g>
<!-- Product&#45;&gt;Photo -->
<g id="edge9" class="edge"><title>Product&#45;&gt;Photo</title>
<path fill="none" stroke="#7e8100" d="M396.688,-670.423C396.688,-639.454 396.688,-603.407 396.688,-573.196"/>
<ellipse fill="none" stroke="#7e8100" cx="396.688" cy="-674.447" rx="4" ry="4"/>
<ellipse fill="#7e8100" stroke="#7e8100" cx="396.688" cy="-568.839" rx="4" ry="4"/>
</g>
<!-- User&#45;&gt;Group -->
<g id="edge11" class="edge"><title>User&#45;&gt;Group</title>
<path fill="none" stroke="#ca91a5" d="M593.33,-635.565C590.807,-646.869 588.314,-658.039 585.947,-668.645"/>
<ellipse fill="none" stroke="#ca91a5" cx="594.209" cy="-631.628" rx="4.00001" ry="4.00001"/>
<polygon fill="#ca91a5" stroke="#ca91a5" points="585.938,-668.687 579.368,-677.467 584.849,-673.567 583.76,-678.447 583.76,-678.447 583.76,-678.447 584.849,-673.567 588.152,-679.427 585.938,-668.687 585.938,-668.687"/>
</g>
<!-- User&#45;&gt;Group -->
<g id="edge14" class="edge"><title>User&#45;&gt;Group</title>
<path fill="none" stroke="#a2545f" d="M607.797,-637.738C606.266,-645.308 604.569,-652.776 602.688,-660 601.924,-662.934 601.08,-665.903 600.173,-668.884"/>
<polygon fill="#a2545f" stroke="#a2545f" points="607.831,-637.559 614.135,-628.586 608.773,-632.649 609.715,-627.738 609.715,-627.738 609.715,-627.738 608.773,-632.649 605.296,-626.89 607.831,-637.559 607.831,-637.559"/>
<polygon fill="#a2545f" stroke="#a2545f" points="600.166,-668.905 592.801,-677.03 598.624,-673.662 597.082,-678.418 597.082,-678.418 597.082,-678.418 598.624,-673.662 601.363,-679.806 600.166,-668.905 600.166,-668.905"/>
<text text-anchor="middle" x="660.281" y="-648.8" font-family="Times,serif" font-size="14.00">participated_groups</text>
</g>
<!-- User&#45;&gt;GroupUser -->
<g id="edge13" class="edge"><title>User&#45;&gt;GroupUser</title>
<path fill="none" stroke="#4b502c" d="M532.593,-380.908C520.005,-363.164 507.605,-345.685 496.56,-330.115"/>
<ellipse fill="none" stroke="#4b502c" cx="534.914" cy="-384.181" rx="4.00002" ry="4.00002"/>
<polygon fill="#4b502c" stroke="#4b502c" points="496.357,-329.828 494.241,-319.068 493.464,-325.75 490.571,-321.672 490.571,-321.672 490.571,-321.672 493.464,-325.75 486.9,-324.276 496.357,-329.828 496.357,-329.828"/>
</g>
<!-- User&#45;&gt;Order -->
<g id="edge10" class="edge"><title>User&#45;&gt;Order</title>
<path fill="none" stroke="#b1f801" d="M621.688,-379.309C621.688,-372.666 621.688,-366.066 621.688,-359.598"/>
<ellipse fill="none" stroke="#b1f801" cx="621.688" cy="-383.443" rx="4" ry="4"/>
<polygon fill="#b1f801" stroke="#b1f801" points="621.688,-359.553 626.188,-349.553 621.688,-354.553 621.688,-349.553 621.688,-349.553 621.688,-349.553 621.688,-354.553 617.188,-349.553 621.688,-359.553 621.688,-359.553"/>
</g>
<!-- User&#45;&gt;Post -->
<g id="edge12" class="edge"><title>User&#45;&gt;Post</title>
<path fill="none" stroke="#04e024" d="M710.925,-380.707C721.651,-365.588 732.237,-350.665 741.962,-336.957"/>
<ellipse fill="none" stroke="#04e024" cx="708.461" cy="-384.181" rx="4.00002" ry="4.00002"/>
<polygon fill="#04e024" stroke="#04e024" points="742.113,-336.745 751.569,-331.192 745.006,-332.666 747.899,-328.588 747.899,-328.588 747.899,-328.588 745.006,-332.666 744.228,-325.985 742.113,-336.745 742.113,-336.745"/>
</g>
</g>
</svg>
