<?xml version="1.0" encoding="UTF-8" standalone="no"?>
<!DOCTYPE svg PUBLIC "-//W3C//DTD SVG 1.1//EN"
 "http://www.w3.org/Graphics/SVG/1.1/DTD/svg11.dtd">
<!-- Generated by graphviz version 2.38.0 (20140413.2041)
 -->
<!-- Title: models_diagram Pages: 1 -->
<svg width="954pt" height="801pt"
 viewBox="0.00 0.00 954.19 801.00" xmlns="http://www.w3.org/2000/svg" xmlns:xlink="http://www.w3.org/1999/xlink">
<g id="graph0" class="graph" transform="scale(1 1) rotate(0) translate(4 797)">
<title>models_diagram</title>
<polygon fill="none" stroke="none" points="-4,4 -4,-797 950.193,-797 950.193,4 -4,4"/>
<!-- _diagram_info -->
<g id="node1" class="node"><title>_diagram_info</title>
<text text-anchor="start" x="8" y="-757.6" font-family="Times,serif" font-size="13.00">Models diagram</text>
<text text-anchor="start" x="8" y="-744.6" font-family="Times,serif" font-size="13.00">Date: May 27 2016 &#45; 10:10</text>
<text text-anchor="start" x="8" y="-731.6" font-family="Times,serif" font-size="13.00">Migration version: 20160527012726</text>
<text text-anchor="start" x="8" y="-718.6" font-family="Times,serif" font-size="13.00">Generated by RailRoady 1.4.2</text>
<text text-anchor="start" x="8" y="-705.6" font-family="Times,serif" font-size="13.00">http://railroady.prestonlee.com</text>
</g>
<!-- Cart -->
<g id="node2" class="node"><title>Cart</title>
<path fill="none" stroke="black" d="M237.182,-699.5C237.182,-699.5 346.193,-699.5 346.193,-699.5 352.193,-699.5 358.193,-705.5 358.193,-711.5 358.193,-711.5 358.193,-759.5 358.193,-759.5 358.193,-765.5 352.193,-771.5 346.193,-771.5 346.193,-771.5 237.182,-771.5 237.182,-771.5 231.182,-771.5 225.182,-765.5 225.182,-759.5 225.182,-759.5 225.182,-711.5 225.182,-711.5 225.182,-705.5 231.182,-699.5 237.182,-699.5"/>
<text text-anchor="middle" x="291.688" y="-756.3" font-family="Times,serif" font-size="14.00">Cart</text>
<polyline fill="none" stroke="black" points="225.182,-749.5 358.193,-749.5 "/>
<text text-anchor="start" x="233.182" y="-734.3" font-family="Times,serif" font-size="14.00">id :INTEGER</text>
<text text-anchor="start" x="233.182" y="-720.3" font-family="Times,serif" font-size="14.00">created_at :datetime</text>
<text text-anchor="start" x="233.182" y="-706.3" font-family="Times,serif" font-size="14.00">updated_at :datetime</text>
</g>
<!-- CartItem -->
<g id="node3" class="node"><title>CartItem</title>
<path fill="none" stroke="black" d="M191.182,-450.5C191.182,-450.5 300.193,-450.5 300.193,-450.5 306.193,-450.5 312.193,-456.5 312.193,-462.5 312.193,-462.5 312.193,-552.5 312.193,-552.5 312.193,-558.5 306.193,-564.5 300.193,-564.5 300.193,-564.5 191.182,-564.5 191.182,-564.5 185.182,-564.5 179.182,-558.5 179.182,-552.5 179.182,-552.5 179.182,-462.5 179.182,-462.5 179.182,-456.5 185.182,-450.5 191.182,-450.5"/>
<text text-anchor="middle" x="245.688" y="-549.3" font-family="Times,serif" font-size="14.00">CartItem</text>
<polyline fill="none" stroke="black" points="179.182,-542.5 312.193,-542.5 "/>
<text text-anchor="start" x="187.182" y="-527.3" font-family="Times,serif" font-size="14.00">id :INTEGER</text>
<text text-anchor="start" x="187.182" y="-513.3" font-family="Times,serif" font-size="14.00">cart_id :integer</text>
<text text-anchor="start" x="187.182" y="-499.3" font-family="Times,serif" font-size="14.00">product_id :integer</text>
<text text-anchor="start" x="187.182" y="-485.3" font-family="Times,serif" font-size="14.00">created_at :datetime</text>
<text text-anchor="start" x="187.182" y="-471.3" font-family="Times,serif" font-size="14.00">updated_at :datetime</text>
<text text-anchor="start" x="187.182" y="-457.3" font-family="Times,serif" font-size="14.00">quantity :integer</text>
</g>
<!-- Cart&#45;&gt;CartItem -->
<g id="edge1" class="edge"><title>Cart&#45;&gt;CartItem</title>
<path fill="none" stroke="#5ea585" d="M282.895,-691.303C276.173,-658.277 266.789,-612.173 259.127,-574.529"/>
<ellipse fill="none" stroke="#5ea585" cx="283.702" cy="-695.268" rx="4.00001" ry="4.00001"/>
<polygon fill="#5ea585" stroke="#5ea585" points="259.112,-574.455 261.527,-563.758 258.115,-569.555 257.118,-564.656 257.118,-564.656 257.118,-564.656 258.115,-569.555 252.708,-565.553 259.112,-574.455 259.112,-574.455"/>
</g>
<!-- Product -->
<g id="node11" class="node"><title>Product</title>
<path fill="none" stroke="black" d="M342.182,-443.5C342.182,-443.5 451.193,-443.5 451.193,-443.5 457.193,-443.5 463.193,-449.5 463.193,-455.5 463.193,-455.5 463.193,-559.5 463.193,-559.5 463.193,-565.5 457.193,-571.5 451.193,-571.5 451.193,-571.5 342.182,-571.5 342.182,-571.5 336.182,-571.5 330.182,-565.5 330.182,-559.5 330.182,-559.5 330.182,-455.5 330.182,-455.5 330.182,-449.5 336.182,-443.5 342.182,-443.5"/>
<text text-anchor="middle" x="396.688" y="-556.3" font-family="Times,serif" font-size="14.00">Product</text>
<polyline fill="none" stroke="black" points="330.182,-549.5 463.193,-549.5 "/>
<text text-anchor="start" x="338.182" y="-534.3" font-family="Times,serif" font-size="14.00">id :INTEGER</text>
<text text-anchor="start" x="338.182" y="-520.3" font-family="Times,serif" font-size="14.00">title :varchar</text>
<text text-anchor="start" x="338.182" y="-506.3" font-family="Times,serif" font-size="14.00">description :text</text>
<text text-anchor="start" x="338.182" y="-492.3" font-family="Times,serif" font-size="14.00">quantity :integer</text>
<text text-anchor="start" x="338.182" y="-478.3" font-family="Times,serif" font-size="14.00">price :integer</text>
<text text-anchor="start" x="338.182" y="-464.3" font-family="Times,serif" font-size="14.00">created_at :datetime</text>
<text text-anchor="start" x="338.182" y="-450.3" font-family="Times,serif" font-size="14.00">updated_at :datetime</text>
</g>
<!-- Cart&#45;&gt;Product -->
<g id="edge2" class="edge"><title>Cart&#45;&gt;Product</title>
<path fill="none" stroke="#3fbe11" d="M312.347,-690.033C326.743,-659.047 346.273,-617.012 362.914,-581.195"/>
<polygon fill="#3fbe11" stroke="#3fbe11" points="312.308,-690.118 304.013,-697.291 310.201,-694.653 308.094,-699.188 308.094,-699.188 308.094,-699.188 310.201,-694.653 312.175,-701.084 312.308,-690.118 312.308,-690.118"/>
<polygon fill="#3fbe11" stroke="#3fbe11" points="363.086,-580.823 371.381,-573.65 365.193,-576.289 367.3,-571.754 367.3,-571.754 367.3,-571.754 365.193,-576.289 363.219,-569.858 363.086,-580.823 363.086,-580.823"/>
<text text-anchor="middle" x="347.853" y="-648.8" font-family="Times,serif" font-size="14.00">items</text>
</g>
<!-- Group -->
<g id="node4" class="node"><title>Group</title>
<path fill="none" stroke="black" d="M625.182,-678.5C625.182,-678.5 734.193,-678.5 734.193,-678.5 740.193,-678.5 746.193,-684.5 746.193,-690.5 746.193,-690.5 746.193,-780.5 746.193,-780.5 746.193,-786.5 740.193,-792.5 734.193,-792.5 734.193,-792.5 625.182,-792.5 625.182,-792.5 619.182,-792.5 613.182,-786.5 613.182,-780.5 613.182,-780.5 613.182,-690.5 613.182,-690.5 613.182,-684.5 619.182,-678.5 625.182,-678.5"/>
<text text-anchor="middle" x="679.688" y="-777.3" font-family="Times,serif" font-size="14.00">Group</text>
<polyline fill="none" stroke="black" points="613.182,-770.5 746.193,-770.5 "/>
<text text-anchor="start" x="621.182" y="-755.3" font-family="Times,serif" font-size="14.00">id :INTEGER</text>
<text text-anchor="start" x="621.182" y="-741.3" font-family="Times,serif" font-size="14.00">title :varchar</text>
<text text-anchor="start" x="621.182" y="-727.3" font-family="Times,serif" font-size="14.00">description :text</text>
<text text-anchor="start" x="621.182" y="-713.3" font-family="Times,serif" font-size="14.00">created_at :datetime</text>
<text text-anchor="start" x="621.182" y="-699.3" font-family="Times,serif" font-size="14.00">updated_at :datetime</text>
<text text-anchor="start" x="621.182" y="-685.3" font-family="Times,serif" font-size="14.00">user_id :integer</text>
</g>
<!-- GroupUser -->
<g id="node5" class="node"><title>GroupUser</title>
<path fill="none" stroke="black" d="M493.182,-221.5C493.182,-221.5 602.193,-221.5 602.193,-221.5 608.193,-221.5 614.193,-227.5 614.193,-233.5 614.193,-233.5 614.193,-309.5 614.193,-309.5 614.193,-315.5 608.193,-321.5 602.193,-321.5 602.193,-321.5 493.182,-321.5 493.182,-321.5 487.182,-321.5 481.182,-315.5 481.182,-309.5 481.182,-309.5 481.182,-233.5 481.182,-233.5 481.182,-227.5 487.182,-221.5 493.182,-221.5"/>
<text text-anchor="middle" x="547.688" y="-306.3" font-family="Times,serif" font-size="14.00">GroupUser</text>
<polyline fill="none" stroke="black" points="481.182,-299.5 614.193,-299.5 "/>
<text text-anchor="start" x="489.182" y="-284.3" font-family="Times,serif" font-size="14.00">id :INTEGER</text>
<text text-anchor="start" x="489.182" y="-270.3" font-family="Times,serif" font-size="14.00">group_id :integer</text>
<text text-anchor="start" x="489.182" y="-256.3" font-family="Times,serif" font-size="14.00">user_id :integer</text>
<text text-anchor="start" x="489.182" y="-242.3" font-family="Times,serif" font-size="14.00">created_at :datetime</text>
<text text-anchor="start" x="489.182" y="-228.3" font-family="Times,serif" font-size="14.00">updated_at :datetime</text>
</g>
<!-- Group&#45;&gt;GroupUser -->
<g id="edge4" class="edge"><title>Group&#45;&gt;GroupUser</title>
<path fill="none" stroke="#2e999b" d="M607.527,-672.779C595.697,-659.234 584.949,-644.087 577.688,-628 534.091,-531.416 535.367,-405.15 541.01,-332.012"/>
<ellipse fill="none" stroke="#2e999b" cx="610.353" cy="-675.916" rx="4.00002" ry="4.00002"/>
<polygon fill="#2e999b" stroke="#2e999b" points="541.046,-331.583 546.355,-321.988 541.458,-326.6 541.87,-321.617 541.87,-321.617 541.87,-321.617 541.458,-326.6 537.385,-321.246 541.046,-331.583 541.046,-331.583"/>
</g>
<!-- Post -->
<g id="node10" class="node"><title>Post</title>
<path fill="none" stroke="black" d="M825.182,-214.5C825.182,-214.5 934.193,-214.5 934.193,-214.5 940.193,-214.5 946.193,-220.5 946.193,-226.5 946.193,-226.5 946.193,-316.5 946.193,-316.5 946.193,-322.5 940.193,-328.5 934.193,-328.5 934.193,-328.5 825.182,-328.5 825.182,-328.5 819.182,-328.5 813.182,-322.5 813.182,-316.5 813.182,-316.5 813.182,-226.5 813.182,-226.5 813.182,-220.5 819.182,-214.5 825.182,-214.5"/>
<text text-anchor="middle" x="879.688" y="-313.3" font-family="Times,serif" font-size="14.00">Post</text>
<polyline fill="none" stroke="black" points="813.182,-306.5 946.193,-306.5 "/>
<text text-anchor="start" x="821.182" y="-291.3" font-family="Times,serif" font-size="14.00">id :INTEGER</text>
<text text-anchor="start" x="821.182" y="-277.3" font-family="Times,serif" font-size="14.00">content :text</text>
<text text-anchor="start" x="821.182" y="-263.3" font-family="Times,serif" font-size="14.00">group_id :integer</text>
<text text-anchor="start" x="821.182" y="-249.3" font-family="Times,serif" font-size="14.00">created_at :datetime</text>
<text text-anchor="start" x="821.182" y="-235.3" font-family="Times,serif" font-size="14.00">updated_at :datetime</text>
<text text-anchor="start" x="821.182" y="-221.3" font-family="Times,serif" font-size="14.00">user_id :integer</text>
</g>
<!-- Group&#45;&gt;Post -->
<g id="edge3" class="edge"><title>Group&#45;&gt;Post</title>
<path fill="none" stroke="#b77235" d="M754.259,-720.831C789.627,-710.329 829.016,-691.953 851.688,-660 919.037,-565.079 908.316,-422.068 894.17,-338.92"/>
<ellipse fill="none" stroke="#b77235" cx="750.161" cy="-721.991" rx="4.00001" ry="4.00001"/>
<polygon fill="#b77235" stroke="#b77235" points="894.128,-338.684 896.819,-328.053 893.258,-333.76 892.388,-328.837 892.388,-328.837 892.388,-328.837 893.258,-333.76 887.956,-329.62 894.128,-338.684 894.128,-338.684"/>
</g>
<!-- User -->
<g id="node12" class="node"><title>User</title>
<path fill="none" stroke="black" d="M598.41,-387.5C598.41,-387.5 778.966,-387.5 778.966,-387.5 784.966,-387.5 790.966,-393.5 790.966,-399.5 790.966,-399.5 790.966,-615.5 790.966,-615.5 790.966,-621.5 784.966,-627.5 778.966,-627.5 778.966,-627.5 598.41,-627.5 598.41,-627.5 592.41,-627.5 586.41,-621.5 586.41,-615.5 586.41,-615.5 586.41,-399.5 586.41,-399.5 586.41,-393.5 592.41,-387.5 598.41,-387.5"/>
<text text-anchor="middle" x="688.688" y="-612.3" font-family="Times,serif" font-size="14.00">User</text>
<polyline fill="none" stroke="black" points="586.41,-605.5 790.966,-605.5 "/>
<text text-anchor="start" x="594.41" y="-590.3" font-family="Times,serif" font-size="14.00">id :INTEGER</text>
<text text-anchor="start" x="594.41" y="-576.3" font-family="Times,serif" font-size="14.00">email :varchar</text>
<text text-anchor="start" x="594.41" y="-562.3" font-family="Times,serif" font-size="14.00">encrypted_password :varchar</text>
<text text-anchor="start" x="594.41" y="-548.3" font-family="Times,serif" font-size="14.00">reset_password_token :varchar</text>
<text text-anchor="start" x="594.41" y="-534.3" font-family="Times,serif" font-size="14.00">reset_password_sent_at :datetime</text>
<text text-anchor="start" x="594.41" y="-520.3" font-family="Times,serif" font-size="14.00">remember_created_at :datetime</text>
<text text-anchor="start" x="594.41" y="-506.3" font-family="Times,serif" font-size="14.00">sign_in_count :integer</text>
<text text-anchor="start" x="594.41" y="-492.3" font-family="Times,serif" font-size="14.00">current_sign_in_at :datetime</text>
<text text-anchor="start" x="594.41" y="-478.3" font-family="Times,serif" font-size="14.00">last_sign_in_at :datetime</text>
<text text-anchor="start" x="594.41" y="-464.3" font-family="Times,serif" font-size="14.00">current_sign_in_ip :varchar</text>
<text text-anchor="start" x="594.41" y="-450.3" font-family="Times,serif" font-size="14.00">last_sign_in_ip :varchar</text>
<text text-anchor="start" x="594.41" y="-436.3" font-family="Times,serif" font-size="14.00">created_at :datetime</text>
<text text-anchor="start" x="594.41" y="-422.3" font-family="Times,serif" font-size="14.00">updated_at :datetime</text>
<text text-anchor="start" x="594.41" y="-408.3" font-family="Times,serif" font-size="14.00">is_admin :boolean</text>
<text text-anchor="start" x="594.41" y="-394.3" font-family="Times,serif" font-size="14.00">name :varchar</text>
</g>
<!-- Group&#45;&gt;User -->
<g id="edge5" class="edge"><title>Group&#45;&gt;User</title>
<path fill="none" stroke="#6e26a9" d="M754.569,-699.668C769.458,-689.117 783.126,-675.979 791.688,-660 799.898,-644.678 799.908,-628.992 794.844,-613.797"/>
<polygon fill="#6e26a9" stroke="#6e26a9" points="754.51,-699.708 743.695,-701.524 750.353,-702.487 746.196,-705.265 746.196,-705.265 746.196,-705.265 750.353,-702.487 748.697,-709.007 754.51,-699.708 754.51,-699.708"/>
<polygon fill="#6e26a9" stroke="#6e26a9" points="794.798,-613.683 795.238,-602.726 792.931,-609.045 791.063,-604.407 791.063,-604.407 791.063,-604.407 792.931,-609.045 786.889,-606.088 794.798,-613.683 794.798,-613.683"/>
<text text-anchor="middle" x="822.346" y="-648.8" font-family="Times,serif" font-size="14.00">members</text>
</g>
<!-- Order -->
<g id="node6" class="node"><title>Order</title>
<path fill="none" stroke="black" d="M644.41,-193.5C644.41,-193.5 782.966,-193.5 782.966,-193.5 788.966,-193.5 794.966,-199.5 794.966,-205.5 794.966,-205.5 794.966,-337.5 794.966,-337.5 794.966,-343.5 788.966,-349.5 782.966,-349.5 782.966,-349.5 644.41,-349.5 644.41,-349.5 638.41,-349.5 632.41,-343.5 632.41,-337.5 632.41,-337.5 632.41,-205.5 632.41,-205.5 632.41,-199.5 638.41,-193.5 644.41,-193.5"/>
<text text-anchor="middle" x="713.688" y="-334.3" font-family="Times,serif" font-size="14.00">Order</text>
<polyline fill="none" stroke="black" points="632.41,-327.5 794.966,-327.5 "/>
<text text-anchor="start" x="640.41" y="-312.3" font-family="Times,serif" font-size="14.00">id :INTEGER</text>
<text text-anchor="start" x="640.41" y="-298.3" font-family="Times,serif" font-size="14.00">user_id :integer</text>
<text text-anchor="start" x="640.41" y="-284.3" font-family="Times,serif" font-size="14.00">total :integer</text>
<text text-anchor="start" x="640.41" y="-270.3" font-family="Times,serif" font-size="14.00">created_at :datetime</text>
<text text-anchor="start" x="640.41" y="-256.3" font-family="Times,serif" font-size="14.00">updated_at :datetime</text>
<text text-anchor="start" x="640.41" y="-242.3" font-family="Times,serif" font-size="14.00">token :varchar</text>
<text text-anchor="start" x="640.41" y="-228.3" font-family="Times,serif" font-size="14.00">is_paid :boolean</text>
<text text-anchor="start" x="640.41" y="-214.3" font-family="Times,serif" font-size="14.00">payment_method :varchar</text>
<text text-anchor="start" x="640.41" y="-200.3" font-family="Times,serif" font-size="14.00">aasm_state :varchar</text>
</g>
<!-- OrderInfo -->
<g id="node7" class="node"><title>OrderInfo</title>
<path fill="none" stroke="black" d="M558.403,-0.5C558.403,-0.5 696.972,-0.5 696.972,-0.5 702.972,-0.5 708.972,-6.5 708.972,-12.5 708.972,-12.5 708.972,-130.5 708.972,-130.5 708.972,-136.5 702.972,-142.5 696.972,-142.5 696.972,-142.5 558.403,-142.5 558.403,-142.5 552.403,-142.5 546.403,-136.5 546.403,-130.5 546.403,-130.5 546.403,-12.5 546.403,-12.5 546.403,-6.5 552.403,-0.5 558.403,-0.5"/>
<text text-anchor="middle" x="627.688" y="-127.3" font-family="Times,serif" font-size="14.00">OrderInfo</text>
<polyline fill="none" stroke="black" points="546.403,-120.5 708.972,-120.5 "/>
<text text-anchor="start" x="554.403" y="-105.3" font-family="Times,serif" font-size="14.00">id :INTEGER</text>
<text text-anchor="start" x="554.403" y="-91.3" font-family="Times,serif" font-size="14.00">order_id :integer</text>
<text text-anchor="start" x="554.403" y="-77.3" font-family="Times,serif" font-size="14.00">billing_name :varchar</text>
<text text-anchor="start" x="554.403" y="-63.3" font-family="Times,serif" font-size="14.00">billing_address :varchar</text>
<text text-anchor="start" x="554.403" y="-49.3" font-family="Times,serif" font-size="14.00">shipping_name :varchar</text>
<text text-anchor="start" x="554.403" y="-35.3" font-family="Times,serif" font-size="14.00">shipping_address :varchar</text>
<text text-anchor="start" x="554.403" y="-21.3" font-family="Times,serif" font-size="14.00">created_at :datetime</text>
<text text-anchor="start" x="554.403" y="-7.3" font-family="Times,serif" font-size="14.00">updated_at :datetime</text>
</g>
<!-- Order&#45;&gt;OrderInfo -->
<g id="edge7" class="edge"><title>Order&#45;&gt;OrderInfo</title>
<path fill="none" stroke="#b471ac" d="M676.935,-185.883C671.796,-174.052 666.536,-161.94 661.455,-150.244"/>
<ellipse fill="none" stroke="#b471ac" cx="678.598" cy="-189.712" rx="4.00002" ry="4.00002"/>
<ellipse fill="#b471ac" stroke="#b471ac" cx="659.74" cy="-146.294" rx="4.00002" ry="4.00002"/>
<text text-anchor="middle" x="681.964" y="-163.8" font-family="Times,serif" font-size="14.00">info</text>
</g>
<!-- OrderItem -->
<g id="node8" class="node"><title>OrderItem</title>
<path fill="none" stroke="black" d="M738.969,-7.5C738.969,-7.5 860.407,-7.5 860.407,-7.5 866.407,-7.5 872.407,-13.5 872.407,-19.5 872.407,-19.5 872.407,-123.5 872.407,-123.5 872.407,-129.5 866.407,-135.5 860.407,-135.5 860.407,-135.5 738.969,-135.5 738.969,-135.5 732.969,-135.5 726.969,-129.5 726.969,-123.5 726.969,-123.5 726.969,-19.5 726.969,-19.5 726.969,-13.5 732.969,-7.5 738.969,-7.5"/>
<text text-anchor="middle" x="799.688" y="-120.3" font-family="Times,serif" font-size="14.00">OrderItem</text>
<polyline fill="none" stroke="black" points="726.969,-113.5 872.407,-113.5 "/>
<text text-anchor="start" x="734.969" y="-98.3" font-family="Times,serif" font-size="14.00">id :INTEGER</text>
<text text-anchor="start" x="734.969" y="-84.3" font-family="Times,serif" font-size="14.00">order_id :integer</text>
<text text-anchor="start" x="734.969" y="-70.3" font-family="Times,serif" font-size="14.00">product_name :varchar</text>
<text text-anchor="start" x="734.969" y="-56.3" font-family="Times,serif" font-size="14.00">price :integer</text>
<text text-anchor="start" x="734.969" y="-42.3" font-family="Times,serif" font-size="14.00">quantity :integer</text>
<text text-anchor="start" x="734.969" y="-28.3" font-family="Times,serif" font-size="14.00">created_at :datetime</text>
<text text-anchor="start" x="734.969" y="-14.3" font-family="Times,serif" font-size="14.00">updated_at :datetime</text>
</g>
<!-- Order&#45;&gt;OrderItem -->
<g id="edge6" class="edge"><title>Order&#45;&gt;OrderItem</title>
<path fill="none" stroke="#893de2" d="M750.514,-185.713C756.383,-172.203 762.407,-158.331 768.14,-145.134"/>
<ellipse fill="none" stroke="#893de2" cx="748.777" cy="-189.712" rx="4.00002" ry="4.00002"/>
<polygon fill="#893de2" stroke="#893de2" points="768.271,-144.831 776.383,-137.452 770.263,-140.245 772.255,-135.659 772.255,-135.659 772.255,-135.659 770.263,-140.245 768.128,-133.866 768.271,-144.831 768.271,-144.831"/>
<text text-anchor="middle" x="773.853" y="-163.8" font-family="Times,serif" font-size="14.00">items</text>
</g>
<!-- Photo -->
<g id="node9" class="node"><title>Photo</title>
<path fill="none" stroke="black" d="M342.182,-221.5C342.182,-221.5 451.193,-221.5 451.193,-221.5 457.193,-221.5 463.193,-227.5 463.193,-233.5 463.193,-233.5 463.193,-309.5 463.193,-309.5 463.193,-315.5 457.193,-321.5 451.193,-321.5 451.193,-321.5 342.182,-321.5 342.182,-321.5 336.182,-321.5 330.182,-315.5 330.182,-309.5 330.182,-309.5 330.182,-233.5 330.182,-233.5 330.182,-227.5 336.182,-221.5 342.182,-221.5"/>
<text text-anchor="middle" x="396.688" y="-306.3" font-family="Times,serif" font-size="14.00">Photo</text>
<polyline fill="none" stroke="black" points="330.182,-299.5 463.193,-299.5 "/>
<text text-anchor="start" x="338.182" y="-284.3" font-family="Times,serif" font-size="14.00">id :INTEGER</text>
<text text-anchor="start" x="338.182" y="-270.3" font-family="Times,serif" font-size="14.00">product_id :integer</text>
<text text-anchor="start" x="338.182" y="-256.3" font-family="Times,serif" font-size="14.00">image :varchar</text>
<text text-anchor="start" x="338.182" y="-242.3" font-family="Times,serif" font-size="14.00">created_at :datetime</text>
<text text-anchor="start" x="338.182" y="-228.3" font-family="Times,serif" font-size="14.00">updated_at :datetime</text>
</g>
<!-- Product&#45;&gt;Photo -->
<g id="edge8" class="edge"><title>Product&#45;&gt;Photo</title>
<path fill="none" stroke="#af2323" d="M396.688,-435.265C396.688,-401.48 396.688,-361.652 396.688,-329.85"/>
<ellipse fill="none" stroke="#af2323" cx="396.688" cy="-439.484" rx="4" ry="4"/>
<ellipse fill="#af2323" stroke="#af2323" cx="396.688" cy="-325.527" rx="4" ry="4"/>
</g>
<!-- User&#45;&gt;Group -->
<g id="edge10" class="edge"><title>User&#45;&gt;Group</title>
<path fill="none" stroke="#ef918d" d="M659.411,-635.939C659.318,-644.066 659.701,-652.138 660.688,-660 661.027,-662.701 661.432,-665.444 661.891,-668.205"/>
<ellipse fill="none" stroke="#ef918d" cx="659.537" cy="-631.798" rx="4" ry="4"/>
<polygon fill="#ef918d" stroke="#ef918d" points="661.93,-668.413 659.344,-679.069 662.849,-673.328 663.767,-678.243 663.767,-678.243 663.767,-678.243 662.849,-673.328 668.19,-677.416 661.93,-668.413 661.93,-668.413"/>
</g>
<!-- User&#45;&gt;Group -->
<g id="edge13" class="edge"><title>User&#45;&gt;Group</title>
<path fill="none" stroke="#3b272b" d="M676.528,-637.535C676.365,-645.132 676.344,-652.663 676.501,-660 676.559,-662.698 676.628,-665.45 676.707,-668.23"/>
<polygon fill="#3b272b" stroke="#3b272b" points="676.528,-637.518 681.317,-627.653 676.674,-632.52 676.819,-627.522 676.819,-627.522 676.819,-627.522 676.674,-632.52 672.321,-627.391 676.528,-637.518 676.528,-637.518"/>
<polygon fill="#3b272b" stroke="#3b272b" points="676.712,-668.376 672.532,-678.514 676.871,-673.373 677.03,-678.371 677.03,-678.371 677.03,-678.371 676.871,-673.373 681.528,-678.228 676.712,-668.376 676.712,-668.376"/>
<text text-anchor="middle" x="731.281" y="-648.8" font-family="Times,serif" font-size="14.00">participated_groups</text>
</g>
<!-- User&#45;&gt;GroupUser -->
<g id="edge12" class="edge"><title>User&#45;&gt;GroupUser</title>
<path fill="none" stroke="#651a05" d="M612.683,-380.364C602.185,-362.942 591.85,-345.791 582.618,-330.47"/>
<ellipse fill="none" stroke="#651a05" cx="614.884" cy="-384.017" rx="4.00002" ry="4.00002"/>
<polygon fill="#651a05" stroke="#651a05" points="582.478,-330.237 581.171,-319.35 579.898,-325.955 577.317,-321.672 577.317,-321.672 577.317,-321.672 579.898,-325.955 573.463,-323.995 582.478,-330.237 582.478,-330.237"/>
</g>
<!-- User&#45;&gt;Order -->
<g id="edge9" class="edge"><title>User&#45;&gt;Order</title>
<path fill="none" stroke="#ce33f5" d="M702.277,-379.309C702.986,-372.666 703.691,-366.066 704.382,-359.598"/>
<ellipse fill="none" stroke="#ce33f5" cx="701.832" cy="-383.466" rx="4" ry="4"/>
<polygon fill="#ce33f5" stroke="#ce33f5" points="704.393,-359.497 709.93,-350.031 704.924,-354.525 705.456,-349.553 705.456,-349.553 705.456,-349.553 704.924,-354.525 700.981,-349.075 704.393,-359.497 704.393,-359.497"/>
</g>
<!-- User&#45;&gt;Post -->
<g id="edge11" class="edge"><title>User&#45;&gt;Post</title>
<path fill="none" stroke="#3017ef" d="M790.972,-381.188C803.543,-365.788 815.955,-350.581 827.333,-336.641"/>
<ellipse fill="none" stroke="#3017ef" cx="788.396" cy="-384.345" rx="4.00002" ry="4.00002"/>
<polygon fill="#3017ef" stroke="#3017ef" points="827.583,-336.335 837.392,-331.434 830.745,-332.462 833.906,-328.588 833.906,-328.588 833.906,-328.588 830.745,-332.462 830.42,-325.743 827.583,-336.335 827.583,-336.335"/>
</g>
</g>
</svg>
