<?xml version="1.0" encoding="UTF-8" standalone="no"?>
<!DOCTYPE svg PUBLIC "-//W3C//DTD SVG 1.1//EN"
 "http://www.w3.org/Graphics/SVG/1.1/DTD/svg11.dtd">
<!-- Generated by graphviz version 2.38.0 (20140413.2041)
 -->
<!-- Title: models_diagram Pages: 1 -->
<svg width="666pt" height="326pt"
 viewBox="0.00 0.00 665.69 326.00" xmlns="http://www.w3.org/2000/svg" xmlns:xlink="http://www.w3.org/1999/xlink">
<g id="graph0" class="graph" transform="scale(1 1) rotate(0) translate(4 322)">
<title>models_diagram</title>
<polygon fill="none" stroke="none" points="-4,4 -4,-322 661.688,-322 661.688,4 -4,4"/>
<!-- _diagram_info -->
<g id="node1" class="node"><title>_diagram_info</title>
<text text-anchor="start" x="8" y="-303.6" font-family="Times,serif" font-size="13.00">Models diagram</text>
<text text-anchor="start" x="8" y="-290.6" font-family="Times,serif" font-size="13.00">Date: May 27 2016 &#45; 10:10</text>
<text text-anchor="start" x="8" y="-277.6" font-family="Times,serif" font-size="13.00">Migration version: 20160527012726</text>
<text text-anchor="start" x="8" y="-264.6" font-family="Times,serif" font-size="13.00">Generated by RailRoady 1.4.2</text>
<text text-anchor="start" x="8" y="-251.6" font-family="Times,serif" font-size="13.00">http://railroady.prestonlee.com</text>
</g>
<!-- Cart -->
<g id="node2" class="node"><title>Cart</title>
<ellipse fill="none" stroke="black" cx="252.688" cy="-281.5" rx="27" ry="18"/>
<text text-anchor="middle" x="252.688" y="-277.3" font-family="Times,serif" font-size="14.00">Cart</text>
</g>
<!-- CartItem -->
<g id="node3" class="node"><title>CartItem</title>
<ellipse fill="none" stroke="black" cx="219.688" cy="-177" rx="41.5766" ry="18"/>
<text text-anchor="middle" x="219.688" y="-172.8" font-family="Times,serif" font-size="14.00">CartItem</text>
</g>
<!-- Cart&#45;&gt;CartItem -->
<g id="edge1" class="edge"><title>Cart&#45;&gt;CartItem</title>
<path fill="none" stroke="#0dee49" d="M244.785,-255.952C239.807,-240.493 233.382,-220.536 228.279,-204.686"/>
<ellipse fill="none" stroke="#0dee49" cx="246.013" cy="-259.767" rx="4.00001" ry="4.00001"/>
<polygon fill="#0dee49" stroke="#0dee49" points="228.21,-204.47 229.429,-193.572 226.677,-199.71 225.145,-194.951 225.145,-194.951 225.145,-194.951 226.677,-199.71 220.862,-196.33 228.21,-204.47 228.21,-204.47"/>
</g>
<!-- Product -->
<g id="node11" class="node"><title>Product</title>
<ellipse fill="none" stroke="black" cx="316.688" cy="-177" rx="37.7352" ry="18"/>
<text text-anchor="middle" x="316.688" y="-172.8" font-family="Times,serif" font-size="14.00">Product</text>
</g>
<!-- Cart&#45;&gt;Product -->
<g id="edge2" class="edge"><title>Cart&#45;&gt;Product</title>
<path fill="none" stroke="#a4c413" d="M268.123,-255.779C278.024,-239.923 290.845,-219.388 300.828,-203.401"/>
<polygon fill="#a4c413" stroke="#a4c413" points="267.984,-256.002 258.871,-262.101 265.336,-260.243 262.688,-264.484 262.688,-264.484 262.688,-264.484 265.336,-260.243 266.505,-266.868 267.984,-256.002 267.984,-256.002"/>
<polygon fill="#a4c413" stroke="#a4c413" points="301.038,-203.065 310.151,-196.966 303.686,-198.823 306.334,-194.582 306.334,-194.582 306.334,-194.582 303.686,-198.823 302.517,-192.199 301.038,-203.065 301.038,-203.065"/>
<text text-anchor="middle" x="309.853" y="-215.8" font-family="Times,serif" font-size="14.00">items</text>
</g>
<!-- Group -->
<g id="node4" class="node"><title>Group</title>
<ellipse fill="none" stroke="black" cx="472.688" cy="-281.5" rx="32.9081" ry="18"/>
<text text-anchor="middle" x="472.688" y="-277.3" font-family="Times,serif" font-size="14.00">Group</text>
</g>
<!-- GroupUser -->
<g id="node5" class="node"><title>GroupUser</title>
<ellipse fill="none" stroke="black" cx="414.688" cy="-104" rx="49.3032" ry="18"/>
<text text-anchor="middle" x="414.688" y="-99.8" font-family="Times,serif" font-size="14.00">GroupUser</text>
</g>
<!-- Group&#45;&gt;GroupUser -->
<g id="edge4" class="edge"><title>Group&#45;&gt;GroupUser</title>
<path fill="none" stroke="#ef411f" d="M459.9,-256.736C455.321,-247.61 450.384,-236.988 446.688,-227 434.918,-195.195 425.677,-157.221 420.213,-132.182"/>
<ellipse fill="none" stroke="#ef411f" cx="461.801" cy="-260.443" rx="4.00002" ry="4.00002"/>
<polygon fill="#ef411f" stroke="#ef411f" points="420.191,-132.08 422.507,-121.361 419.149,-127.189 418.106,-122.299 418.106,-122.299 418.106,-122.299 419.149,-127.189 413.705,-123.238 420.191,-132.08 420.191,-132.08"/>
</g>
<!-- Post -->
<g id="node10" class="node"><title>Post</title>
<ellipse fill="none" stroke="black" cx="630.688" cy="-104" rx="27" ry="18"/>
<text text-anchor="middle" x="630.688" y="-99.8" font-family="Times,serif" font-size="14.00">Post</text>
</g>
<!-- Group&#45;&gt;Post -->
<g id="edge3" class="edge"><title>Group&#45;&gt;Post</title>
<path fill="none" stroke="#84eebf" d="M513.436,-280.455C553.643,-277.959 613.237,-267.144 642.688,-227 663.116,-199.155 652.826,-157.592 642.551,-130.89"/>
<ellipse fill="none" stroke="#84eebf" cx="509.413" cy="-280.658" rx="4" ry="4"/>
<polygon fill="#84eebf" stroke="#84eebf" points="642.472,-130.695 642.842,-119.736 640.575,-126.069 638.679,-121.443 638.679,-121.443 638.679,-121.443 640.575,-126.069 634.515,-123.15 642.472,-130.695 642.472,-130.695"/>
</g>
<!-- User -->
<g id="node12" class="node"><title>User</title>
<ellipse fill="none" stroke="black" cx="482.688" cy="-177" rx="27" ry="18"/>
<text text-anchor="middle" x="482.688" y="-172.8" font-family="Times,serif" font-size="14.00">User</text>
</g>
<!-- Group&#45;&gt;User -->
<g id="edge5" class="edge"><title>Group&#45;&gt;User</title>
<path fill="none" stroke="#fc2283" d="M513.167,-272.588C538.445,-265.33 569.062,-251.781 584.688,-227 601.854,-199.775 555.276,-187.328 519.51,-181.894"/>
<polygon fill="#fc2283" stroke="#fc2283" points="513.099,-272.606 502.282,-270.806 508.265,-273.882 503.43,-275.157 503.43,-275.157 503.43,-275.157 508.265,-273.882 504.578,-279.508 513.099,-272.606 513.099,-272.606"/>
<polygon fill="#fc2283" stroke="#fc2283" points="519.212,-181.853 509.923,-176.025 514.259,-181.168 509.306,-180.483 509.306,-180.483 509.306,-180.483 514.259,-181.168 508.69,-184.94 519.212,-181.853 519.212,-181.853"/>
<text text-anchor="middle" x="613.346" y="-215.8" font-family="Times,serif" font-size="14.00">members</text>
</g>
<!-- Order -->
<g id="node6" class="node"><title>Order</title>
<ellipse fill="none" stroke="black" cx="512.688" cy="-104" rx="30.9619" ry="18"/>
<text text-anchor="middle" x="512.688" y="-99.8" font-family="Times,serif" font-size="14.00">Order</text>
</g>
<!-- OrderInfo -->
<g id="node7" class="node"><title>OrderInfo</title>
<ellipse fill="none" stroke="black" cx="457.688" cy="-18" rx="45.4269" ry="18"/>
<text text-anchor="middle" x="457.688" y="-13.8" font-family="Times,serif" font-size="14.00">OrderInfo</text>
</g>
<!-- Order&#45;&gt;OrderInfo -->
<g id="edge7" class="edge"><title>Order&#45;&gt;OrderInfo</title>
<path fill="none" stroke="#d8f04c" d="M497.534,-79.8554C489.95,-68.273 480.785,-54.2764 473.158,-42.628"/>
<ellipse fill="none" stroke="#d8f04c" cx="499.892" cy="-83.4575" rx="4.00002" ry="4.00002"/>
<ellipse fill="#d8f04c" stroke="#d8f04c" cx="470.827" cy="-39.0678" rx="4.00002" ry="4.00002"/>
<text text-anchor="middle" x="498.964" y="-56.8" font-family="Times,serif" font-size="14.00">info</text>
</g>
<!-- OrderItem -->
<g id="node8" class="node"><title>OrderItem</title>
<ellipse fill="none" stroke="black" cx="567.688" cy="-18" rx="46.8719" ry="18"/>
<text text-anchor="middle" x="567.688" y="-13.8" font-family="Times,serif" font-size="14.00">OrderItem</text>
</g>
<!-- Order&#45;&gt;OrderItem -->
<g id="edge6" class="edge"><title>Order&#45;&gt;OrderItem</title>
<path fill="none" stroke="#4413d4" d="M527.842,-79.8554C535.068,-68.8193 543.729,-55.5915 551.128,-44.2916"/>
<ellipse fill="none" stroke="#4413d4" cx="525.483" cy="-83.4575" rx="4.00002" ry="4.00002"/>
<polygon fill="#4413d4" stroke="#4413d4" points="551.261,-44.0875 560.504,-38.1863 554,-39.9044 556.739,-35.7213 556.739,-35.7213 556.739,-35.7213 554,-39.9044 552.975,-33.2562 551.261,-44.0875 551.261,-44.0875"/>
<text text-anchor="middle" x="557.853" y="-56.8" font-family="Times,serif" font-size="14.00">items</text>
</g>
<!-- Photo -->
<g id="node9" class="node"><title>Photo</title>
<ellipse fill="none" stroke="black" cx="316.688" cy="-104" rx="30.9967" ry="18"/>
<text text-anchor="middle" x="316.688" y="-99.8" font-family="Times,serif" font-size="14.00">Photo</text>
</g>
<!-- Product&#45;&gt;Photo -->
<g id="edge8" class="edge"><title>Product&#45;&gt;Photo</title>
<path fill="none" stroke="#4c9751" d="M316.688,-150.791C316.688,-144.087 316.688,-136.847 316.688,-130.147"/>
<ellipse fill="none" stroke="#4c9751" cx="316.688" cy="-154.813" rx="4" ry="4"/>
<ellipse fill="#4c9751" stroke="#4c9751" cx="316.688" cy="-126.029" rx="4" ry="4"/>
</g>
<!-- User&#45;&gt;Group -->
<g id="edge10" class="edge"><title>User&#45;&gt;Group</title>
<path fill="none" stroke="#17356a" d="M462.151,-198.117C458.683,-202.659 455.593,-207.713 453.688,-213 448.753,-226.69 452.569,-242.311 458.039,-255.076"/>
<ellipse fill="none" stroke="#17356a" cx="464.834" cy="-194.925" rx="4.00002" ry="4.00002"/>
<polygon fill="#17356a" stroke="#17356a" points="458.094,-255.189 458.372,-266.152 460.261,-259.695 462.428,-264.202 462.428,-264.202 462.428,-264.202 460.261,-259.695 466.483,-262.251 458.094,-255.189 458.094,-255.189"/>
</g>
<!-- User&#45;&gt;Group -->
<g id="edge13" class="edge"><title>User&#45;&gt;Group</title>
<path fill="none" stroke="#d93cea" d="M471.702,-204.096C470.803,-207.057 470.036,-210.065 469.501,-213 467.111,-226.123 467.473,-240.903 468.613,-253.281"/>
<polygon fill="#d93cea" stroke="#d93cea" points="471.8,-203.818 479.366,-195.88 473.461,-199.102 475.122,-194.385 475.122,-194.385 475.122,-194.385 473.461,-199.102 470.878,-192.891 471.8,-203.818 471.8,-203.818"/>
<polygon fill="#d93cea" stroke="#d93cea" points="468.638,-253.501 465.295,-263.945 469.202,-258.469 469.766,-263.437 469.766,-263.437 469.766,-263.437 469.202,-258.469 474.237,-262.929 468.638,-253.501 468.638,-253.501"/>
<text text-anchor="middle" x="524.281" y="-215.8" font-family="Times,serif" font-size="14.00">participated_groups</text>
</g>
<!-- User&#45;&gt;GroupUser -->
<g id="edge12" class="edge"><title>User&#45;&gt;GroupUser</title>
<path fill="none" stroke="#ced539" d="M463.053,-155.499C454.97,-147.059 445.559,-137.233 437.199,-128.504"/>
<ellipse fill="none" stroke="#ced539" cx="465.831" cy="-158.4" rx="4.00002" ry="4.00002"/>
<polygon fill="#ced539" stroke="#ced539" points="437.099,-128.4 433.432,-118.065 433.64,-124.789 430.182,-121.178 430.182,-121.178 430.182,-121.178 433.64,-124.789 426.932,-124.29 437.099,-128.4 437.099,-128.4"/>
</g>
<!-- User&#45;&gt;Order -->
<g id="edge9" class="edge"><title>User&#45;&gt;Order</title>
<path fill="none" stroke="#405e60" d="M492.847,-151.958C495.653,-145.316 498.712,-138.075 501.57,-131.312"/>
<ellipse fill="none" stroke="#405e60" cx="491.203" cy="-155.848" rx="4.00002" ry="4.00002"/>
<polygon fill="#405e60" stroke="#405e60" points="501.667,-131.082 509.704,-123.623 503.613,-126.477 505.559,-121.871 505.559,-121.871 505.559,-121.871 503.613,-126.477 501.414,-120.12 501.667,-131.082 501.667,-131.082"/>
</g>
<!-- User&#45;&gt;Post -->
<g id="edge11" class="edge"><title>User&#45;&gt;Post</title>
<path fill="none" stroke="#df3974" d="M511.178,-162.332C536.637,-150.119 573.844,-132.27 599.962,-119.74"/>
<ellipse fill="none" stroke="#df3974" cx="507.499" cy="-164.097" rx="4.00002" ry="4.00002"/>
<polygon fill="#df3974" stroke="#df3974" points="600.025,-119.71 610.987,-119.442 604.533,-117.547 609.041,-115.385 609.041,-115.385 609.041,-115.385 604.533,-117.547 607.095,-111.327 600.025,-119.71 600.025,-119.71"/>
</g>
</g>
</svg>
